<svg version="1.1" id="Layer_1" xmlns="http://www.w3.org/2000/svg" xmlns:xlink="http://www.w3.org/1999/xlink" x="0px" y="0px"
	 width="100%" viewBox="0 0 128 128" enable-background="new 0 0 128 128" xml:space="preserve">
<path fill="#2D3439" opacity="1.000000" stroke="none" 
	d="
M1.000000,126.000000 
	C1.000000,117.645767 1.000000,109.291534 1.366097,100.373779 
	C2.098760,99.287827 2.698480,98.806252 2.798240,98.237053 
	C6.574410,76.691406 10.311235,55.138847 14.038374,33.584633 
	C16.139040,21.436380 21.217060,11.223192 33.615490,6.952498 
	C38.987637,5.102038 44.933830,4.204350 50.633442,4.140609 
	C76.752884,3.848507 102.877342,4.004744 129.000000,4.000000 
	C129.000000,13.020896 129.000000,22.041792 128.631256,31.630720 
	C127.647507,34.525799 126.841003,36.821018 126.448090,39.184978 
	C123.571770,56.490452 120.409142,73.759644 118.052910,91.137367 
	C115.151901,112.533035 103.545914,126.746323 79.799652,126.139633 
	C53.549049,125.468964 27.267866,125.995102 1.000000,126.000000 
M12.857435,77.750473 
	C11.879179,83.825180 10.900922,89.899879 9.546394,96.663589 
	C8.159368,104.531113 6.772341,112.398636 5.305764,120.717384 
	C14.223157,120.717384 22.111687,120.717384 30.926279,120.872757 
	C39.953842,120.823212 48.981407,120.773666 58.933838,120.877762 
	C65.376320,120.901291 71.838364,121.242859 78.255142,120.848358 
	C83.449387,120.529030 88.589172,119.323898 94.396454,118.341690 
	C101.036789,115.565331 105.034790,110.293877 108.408318,103.409737 
	C109.900116,95.936775 111.391914,88.463806 113.149490,80.195770 
	C114.496124,71.472954 115.842758,62.750134 117.574059,53.307625 
	C119.929276,38.848671 122.284485,24.389721 124.671280,9.736888 
	C123.027893,9.514945 122.063866,9.271534 121.099731,9.271105 
	C97.146614,9.260430 73.193001,9.203857 49.240913,9.366520 
	C45.825199,9.389716 42.416855,10.497349 38.283264,11.101260 
	C29.645967,14.139883 23.835333,19.794283 21.339163,29.552780 
	C19.872332,38.363213 18.405500,47.173645 16.564144,56.661831 
	C15.429135,63.438740 14.294127,70.215652 12.857435,77.750473 
z"/>
<path fill="#000000" opacity="1.000000" stroke="none" 
	d="
M129.000000,3.500000 
	C102.877342,4.004744 76.752884,3.848507 50.633442,4.140609 
	C44.933830,4.204350 38.987637,5.102038 33.615490,6.952498 
	C21.217060,11.223192 16.139040,21.436380 14.038374,33.584633 
	C10.311235,55.138847 6.574410,76.691406 2.798240,98.237053 
	C2.698480,98.806252 2.098760,99.287827 1.366097,99.905136 
	C1.000000,67.071892 1.000000,34.143787 1.000000,1.000000 
	C33.523289,1.000000 66.047050,1.000000 98.570816,1.000000 
	C107.883812,1.000000 117.196823,0.994672 126.509804,1.005997 
	C127.839264,1.007614 129.625336,0.521229 129.000000,3.500000 
z"/>
<path fill="#000000" opacity="1.000000" stroke="none" 
	d="
M0.999999,126.500000 
	C27.267866,125.995102 53.549049,125.468964 79.799652,126.139633 
	C103.545914,126.746323 115.151901,112.533035 118.052910,91.137367 
	C120.409142,73.759644 123.571770,56.490452 126.448090,39.184978 
	C126.841003,36.821018 127.647507,34.525799 128.631256,32.099377 
	C129.000000,64.262276 129.000000,96.524544 129.000000,129.000000 
	C90.988541,129.000000 52.976681,129.000000 14.964823,129.000000 
	C10.807313,129.000000 6.647120,129.070236 2.495671,128.911621 
	C1.973528,128.891663 1.497429,127.666672 0.999999,126.500000 
z"/>
<path fill="#13C7FC" opacity="1.000000" stroke="none" 
	d="
M39.005100,11.103086 
	C42.416855,10.497349 45.825199,9.389716 49.240913,9.366520 
	C73.193001,9.203857 97.146614,9.260430 121.099731,9.271105 
	C122.063866,9.271534 123.027893,9.514945 124.671280,9.736888 
	C122.284485,24.389721 119.929276,38.848671 117.060921,53.580391 
	C115.365494,52.901955 114.183205,51.950748 113.003716,50.586952 
	C113.335960,47.782978 113.665405,45.391590 114.013489,42.585747 
	C114.354752,39.114483 114.677376,36.057682 115.185623,32.657089 
	C115.980469,28.708735 116.611969,25.107758 117.193954,21.498796 
	C118.173813,15.422590 117.847603,15.024606 111.496567,15.010583 
	C99.330254,14.983722 87.163826,15.006085 74.528961,15.006941 
	C65.706108,15.004660 57.351749,15.003463 48.569202,15.001139 
	C46.427338,15.000709 44.713661,15.001405 42.739235,14.811935 
	C41.320694,13.448875 40.162895,12.275980 39.005100,11.103086 
z"/>
<path fill="#07A5D7" opacity="1.000000" stroke="none" 
	d="
M30.000217,120.717384 
	C22.111687,120.717384 14.223157,120.717384 5.305764,120.717384 
	C6.772341,112.398636 8.159368,104.531113 10.156116,96.324028 
	C12.170911,95.985687 13.575981,95.986900 14.987643,96.324982 
	C15.001263,97.110832 15.008291,97.559814 14.868984,98.374252 
	C13.990158,102.778999 13.403727,106.851860 12.485383,110.848450 
	C11.505472,115.112961 13.571118,116.209671 17.243013,115.961082 
	C21.497808,115.673019 25.751539,115.369293 30.004902,115.476120 
	C30.002785,117.492378 30.001501,119.104881 30.000217,120.717384 
z"/>
<path fill="#08AADC" opacity="1.000000" stroke="none" 
	d="
M93.753113,118.511673 
	C88.589172,119.323898 83.449387,120.529030 78.255142,120.848358 
	C71.838364,121.242859 65.376320,120.901291 58.484913,120.439468 
	C58.361908,118.350708 58.687824,116.700249 59.468384,115.040710 
	C68.279861,115.017326 76.636711,115.003029 85.389191,114.977608 
	C87.856140,114.641716 89.927460,114.316956 92.028702,114.407784 
	C92.623459,116.052803 93.188286,117.282242 93.753113,118.511673 
z"/>
<path fill="#06A6D9" opacity="1.000000" stroke="none" 
	d="
M59.013744,115.049789 
	C58.687824,116.700249 58.361908,118.350708 58.022480,120.362640 
	C48.981407,120.773666 39.953842,120.823212 30.463249,120.795074 
	C30.001501,119.104881 30.002785,117.492378 30.388012,115.495499 
	C37.848740,115.075439 44.925529,115.039749 52.440025,115.005844 
	C54.923073,115.021683 56.968407,115.035736 59.013744,115.049789 
z"/>
<path fill="#10BDF1" opacity="1.000000" stroke="none" 
	d="
M113.000916,50.999546 
	C114.183205,51.950748 115.365494,52.901955 116.868591,53.940235 
	C115.842758,62.750134 114.496124,71.472954 112.686455,80.544754 
	C110.819481,80.259781 109.415535,79.625839 108.052513,78.584961 
	C108.402046,75.116829 108.710663,72.055634 109.202057,68.657097 
	C110.253845,63.217281 111.122864,58.114796 112.074150,52.740402 
	C112.437920,51.978844 112.719421,51.489197 113.000916,50.999546 
z"/>
<path fill="#0EB9ED" opacity="1.000000" stroke="none" 
	d="
M16.938669,55.984077 
	C18.405500,47.173645 19.872332,38.363213 21.996208,29.254063 
	C24.099249,28.966652 25.545244,28.977959 26.926186,29.301298 
	C26.578066,30.412804 26.294996,31.212276 26.004421,32.428673 
	C25.335045,36.565571 24.673176,40.285549 23.968016,44.410080 
	C23.278841,48.538498 22.632957,52.262360 21.566425,55.989098 
	C19.743408,55.989342 18.341038,55.986710 16.938669,55.984077 
z"/>
<path fill="#12C1F6" opacity="1.000000" stroke="none" 
	d="
M26.991238,28.989265 
	C25.545244,28.977959 24.099249,28.966652 22.219423,28.942167 
	C23.835333,19.794283 29.645967,14.139883 38.644180,11.102173 
	C40.162895,12.275980 41.320694,13.448875 42.441277,14.996389 
	C39.601341,16.910669 36.798622,18.450333 33.689674,20.120939 
	C31.252708,23.164343 29.121973,26.076803 26.991238,28.989265 
z"/>
<path fill="#0DB5E8" opacity="1.000000" stroke="none" 
	d="
M108.011597,78.991890 
	C109.415535,79.625839 110.819481,80.259781 112.553566,80.942291 
	C111.391914,88.463806 109.900116,95.936775 107.869171,103.615105 
	C106.220726,102.880417 105.111427,101.940353 104.088516,100.614822 
	C105.110748,95.490112 106.046600,90.750885 106.999748,85.615784 
	C107.348564,83.143898 107.680077,81.067894 108.011597,78.991890 
z"/>
<path fill="#0CB0E3" opacity="1.000000" stroke="none" 
	d="
M16.751408,56.322952 
	C18.341038,55.986710 19.743408,55.989342 21.571335,56.327118 
	C22.001324,57.112614 22.005754,57.562969 21.864883,58.376007 
	C20.819603,63.162643 19.919624,67.586594 19.004539,72.361534 
	C18.663549,73.810844 18.337666,74.909157 17.665352,76.082062 
	C15.932319,76.435287 14.545718,76.713921 13.159118,76.992561 
	C14.294127,70.215652 15.429135,63.438740 16.751408,56.322952 
z"/>
<path fill="#09ABDE" opacity="1.000000" stroke="none" 
	d="
M13.008276,77.371521 
	C14.545718,76.713921 15.932319,76.435287 17.662277,76.501282 
	C17.676186,79.566864 17.346739,82.287819 16.929407,85.394554 
	C16.221367,89.182930 15.601211,92.585518 14.981052,95.988113 
	C13.575981,95.986900 12.170911,95.985687 10.344253,95.979523 
	C10.900922,89.899879 11.879179,83.825180 13.008276,77.371521 
z"/>
<path fill="#0BAFE1" opacity="1.000000" stroke="none" 
	d="
M104.002136,101.000298 
	C105.111427,101.940353 106.220726,102.880417 107.637115,103.907486 
	C105.034790,110.293877 101.036789,115.565331 94.074783,118.426682 
	C93.188286,117.282242 92.623459,116.052803 92.278770,114.186974 
	C95.669350,110.034019 98.839806,106.517464 102.213501,102.805206 
	C102.945206,102.073097 103.473671,101.536697 104.002136,101.000298 
z"/>
<path fill="#10BBFB" opacity="1.000000" stroke="none" 
	d="
M48.997391,15.002266 
	C57.351749,15.003463 65.706108,15.004660 74.671837,15.318663 
	C79.068710,17.529963 82.769119,19.627777 86.656631,21.287327 
	C96.057961,25.300680 105.546570,29.109571 115.000000,33.000881 
	C114.677376,36.057682 114.354752,39.114483 113.698074,42.458969 
	C109.660263,41.164696 105.956497,39.582741 102.208916,37.592155 
	C101.840103,31.036194 99.331833,28.258127 92.861336,28.151320 
	C87.608658,28.064613 82.341713,28.842321 76.831024,28.983482 
	C71.685005,26.412502 66.754227,24.164848 61.903492,21.756025 
	C57.555683,19.596947 53.295971,17.260477 48.997391,15.002266 
z"/>
<path fill="#10BEFE" opacity="1.000000" stroke="none" 
	d="
M115.185623,32.657089 
	C105.546570,29.109571 96.057961,25.300680 86.656631,21.287327 
	C82.769119,19.627777 79.068710,17.529963 75.140327,15.319746 
	C87.163826,15.006085 99.330254,14.983722 111.496567,15.010583 
	C117.847603,15.024606 118.173813,15.422590 117.193954,21.498796 
	C116.611969,25.107758 115.980469,28.708735 115.185623,32.657089 
z"/>
<path fill="#13B8F7" opacity="1.000000" stroke="none" 
	d="
M48.569202,15.001139 
	C53.295971,17.260477 57.555683,19.596947 61.903492,21.756025 
	C66.754227,24.164848 71.685005,26.412502 76.682472,29.284550 
	C75.119011,33.631702 73.454018,37.424614 71.433884,41.288483 
	C70.387733,41.574291 69.696716,41.789146 68.973763,41.605198 
	C70.340607,30.905298 67.885704,28.041693 57.440693,27.863811 
	C54.960247,27.821569 52.477741,27.900751 49.937061,27.576252 
	C45.963745,21.788118 39.616249,21.686789 33.995903,19.989996 
	C36.798622,18.450333 39.601341,16.910669 42.702023,15.186554 
	C44.713661,15.001405 46.427338,15.000709 48.569202,15.001139 
z"/>
<path fill="#11B8F7" opacity="1.000000" stroke="none" 
	d="
M102.252731,38.000790 
	C105.956497,39.582741 109.660263,41.164696 113.679443,42.873428 
	C113.665405,45.391590 113.335960,47.782978 113.003716,50.586952 
	C112.719421,51.489197 112.437920,51.978844 111.732239,52.638008 
	C107.604691,51.539890 103.901321,50.272251 100.172348,48.613293 
	C100.848747,44.814915 101.550743,41.407852 102.252731,38.000790 
z"/>
<path fill="#0594D1" opacity="1.000000" stroke="none" 
	d="
M52.002319,115.004059 
	C44.925529,115.039749 37.848740,115.075439 30.388844,115.091751 
	C25.751539,115.369293 21.497808,115.673019 17.243013,115.961082 
	C13.571118,116.209671 11.505472,115.112961 12.485383,110.848450 
	C13.403727,106.851860 13.990158,102.778999 15.288038,98.373138 
	C19.857470,98.672157 23.861515,99.337753 27.930668,100.423645 
	C30.329002,101.369987 32.662228,101.896034 35.044010,102.755905 
	C37.418465,105.007179 39.631329,107.087311 42.098442,108.801537 
	C45.293671,111.021690 48.691635,112.950066 52.002319,115.004059 
z"/>
<path fill="#0799D6" opacity="1.000000" stroke="none" 
	d="
M27.865561,100.003349 
	C23.861515,99.337753 19.857470,98.672157 15.434373,98.007683 
	C15.008291,97.559814 15.001263,97.110832 14.987644,96.324982 
	C15.601211,92.585518 16.221367,89.182930 17.334175,85.396835 
	C22.110483,86.425270 26.394138,87.837212 30.537895,89.615189 
	C29.553850,93.321930 28.709705,96.662643 27.865561,100.003349 
z"/>
<path fill="#0698D6" opacity="1.000000" stroke="none" 
	d="
M52.440025,115.005844 
	C48.691635,112.950066 45.293671,111.021690 42.098442,108.801537 
	C39.631329,107.087311 37.418465,105.007179 35.504738,102.662415 
	C42.880344,102.235100 49.843777,102.235100 57.083183,102.235100 
	C57.490734,99.891541 57.827763,97.953529 58.541260,96.014297 
	C59.670536,96.024284 60.423347,96.035500 61.062424,96.424896 
	C59.215969,100.292374 59.861473,102.309891 64.191551,102.217224 
	C66.120743,102.175949 68.054375,102.341927 70.002350,102.764969 
	C70.460533,107.818237 74.842377,107.883621 77.732697,109.749306 
	C80.236908,111.365761 82.579521,113.232574 84.993553,114.988731 
	C76.636711,115.003029 68.279861,115.017326 59.468384,115.040710 
	C56.968407,115.035736 54.923073,115.021683 52.440025,115.005844 
z"/>
<path fill="#0D9FDC" opacity="1.000000" stroke="none" 
	d="
M85.389191,114.977608 
	C82.579521,113.232574 80.236908,111.365761 77.732697,109.749306 
	C74.842377,107.883621 70.460533,107.818237 70.463348,102.669769 
	C75.680672,102.207458 80.478294,101.887177 85.217850,102.275543 
	C88.762917,102.566040 90.300865,101.143326 91.269524,98.076897 
	C95.092934,99.770454 98.551590,101.385681 102.010254,103.000900 
	C98.839806,106.517464 95.669350,110.034019 92.248840,113.771385 
	C89.927460,114.316956 87.856140,114.641716 85.389191,114.977608 
z"/>
<path fill="#0DABEA" opacity="1.000000" stroke="none" 
	d="
M108.052513,78.584961 
	C107.680077,81.067894 107.348564,83.143898 106.664322,85.515610 
	C99.794151,82.845490 93.276688,79.879654 86.855606,76.578194 
	C90.002754,71.830864 93.053520,67.419167 96.446564,63.095528 
	C100.865646,65.120544 104.942467,67.057487 109.019279,68.994431 
	C108.710663,72.055634 108.402046,75.116829 108.052513,78.584961 
z"/>
<path fill="#10B2F1" opacity="1.000000" stroke="none" 
	d="
M109.202057,68.657097 
	C104.942467,67.057487 100.865646,65.120544 96.525177,62.743690 
	C97.573669,57.870724 98.885811,53.437668 100.197952,49.004612 
	C103.901321,50.272251 107.604691,51.539890 111.649963,52.909920 
	C111.122864,58.114796 110.253845,63.217281 109.202057,68.657097 
z"/>
<path fill="#0BA9E7" opacity="1.000000" stroke="none" 
	d="
M22.010185,58.013321 
	C22.005754,57.562969 22.001324,57.112614 21.991983,56.324242 
	C22.632957,52.262360 23.278841,48.538498 24.385632,44.409714 
	C29.237244,45.003647 33.627949,46.002495 38.050545,47.400360 
	C37.843666,49.999001 37.604900,52.198631 37.368427,54.377140 
	C48.772278,55.848335 48.771362,55.848118 51.172787,45.720161 
	C51.248108,45.402508 51.386246,45.099743 51.983986,44.822952 
	C53.450089,44.928215 54.427299,45.000557 55.362774,45.477680 
	C54.929428,46.585835 54.229542,47.273853 54.193634,47.994942 
	C53.810246,55.693394 49.851505,61.698589 44.940159,67.126228 
	C37.128067,63.910820 29.569126,60.962070 22.010185,58.013321 
z"/>
<path fill="#0EB3F2" opacity="1.000000" stroke="none" 
	d="
M33.689674,20.120939 
	C39.616249,21.686789 45.963745,21.788118 49.610291,27.720619 
	C46.488197,30.474758 43.633755,32.736706 40.386749,34.994133 
	C35.333435,33.996994 30.672682,33.004372 26.011929,32.011749 
	C26.294996,31.212276 26.578066,30.412804 26.926186,29.301296 
	C29.121973,26.076803 31.252708,23.164343 33.689674,20.120939 
z"/>
<path fill="#0FAEED" opacity="1.000000" stroke="none" 
	d="
M26.004421,32.428673 
	C30.672682,33.004372 35.333435,33.996994 40.345322,35.368492 
	C39.803852,39.498695 38.911251,43.250023 38.018654,47.001347 
	C33.627949,46.002495 29.237244,45.003647 24.428925,44.005161 
	C24.673176,40.285549 25.335045,36.565571 26.004421,32.428673 
z"/>
<path fill="#0CA6E4" opacity="1.000000" stroke="none" 
	d="
M86.759232,76.913818 
	C93.276688,79.879654 99.794151,82.845490 106.647034,85.911491 
	C106.046600,90.750885 105.110748,95.490112 104.088516,100.614822 
	C103.473671,101.536697 102.945206,102.073097 102.213501,102.805206 
	C98.551590,101.385681 95.092934,99.770454 91.235146,97.698196 
	C90.963577,95.672157 91.091133,94.103149 91.269516,91.908951 
	C86.189598,91.908951 81.672661,91.908951 76.155991,91.908951 
	C80.104530,86.324913 83.431885,81.619370 86.759232,76.913818 
z"/>
<path fill="#0AA3E1" opacity="1.000000" stroke="none" 
	d="
M21.864883,58.376007 
	C29.569126,60.962070 37.128067,63.910820 44.853279,67.447144 
	C42.704052,71.364571 40.388554,74.694427 37.712898,77.936844 
	C31.241705,75.903114 25.130674,73.956825 19.019646,72.010536 
	C19.919624,67.586594 20.819603,63.162643 21.864883,58.376007 
z"/>
<path fill="#099EDC" opacity="1.000000" stroke="none" 
	d="
M19.004539,72.361534 
	C25.130674,73.956825 31.241705,75.903114 37.627777,78.271400 
	C35.494480,82.211983 33.086140,85.730568 30.677795,89.249153 
	C26.394138,87.837212 22.110483,86.425270 17.422058,85.011047 
	C17.346739,82.287819 17.676186,79.566864 18.008709,76.426689 
	C18.337666,74.909157 18.663549,73.810844 19.004539,72.361534 
z"/>
<path fill="#F7FCFE" opacity="1.000000" stroke="none" 
	d="
M86.855606,76.578194 
	C83.431885,81.619370 80.104530,86.324913 76.155991,91.908951 
	C81.672661,91.908951 86.189598,91.908951 91.269516,91.908951 
	C91.091133,94.103149 90.963577,95.672157 90.870399,97.619865 
	C90.300865,101.143326 88.762917,102.566040 85.217850,102.275543 
	C80.478294,101.887177 75.680672,102.207458 70.446991,102.318619 
	C68.054375,102.341927 66.120743,102.175949 64.191551,102.217224 
	C59.861473,102.309891 59.215969,100.292374 61.268517,96.121719 
	C63.445538,91.409538 65.302742,87.378700 67.439186,83.139236 
	C70.692299,78.381676 73.666183,73.832741 76.876129,69.064713 
	C82.024910,62.295441 86.465614,55.515663 87.808014,46.819664 
	C88.322533,44.558895 88.884476,42.645061 88.973030,40.709572 
	C89.013481,39.825642 88.120544,38.898998 87.650940,37.991730 
	C86.784630,38.586308 85.416992,39.013149 85.150856,39.808540 
	C84.489471,41.785271 84.330376,43.930069 83.811684,46.349735 
	C81.668663,55.570957 79.711670,56.653496 69.541206,53.855606 
	C70.282074,49.690193 71.035545,45.453857 71.789024,41.217522 
	C73.454018,37.424614 75.119011,33.631702 76.932556,29.537727 
	C82.341713,28.842321 87.608658,28.064613 92.861336,28.151320 
	C99.331833,28.258127 101.840103,31.036194 102.208916,37.592155 
	C101.550743,41.407852 100.848747,44.814915 100.172348,48.613293 
	C98.885811,53.437668 97.573669,57.870724 96.182907,62.655621 
	C93.053520,67.419167 90.002754,71.830864 86.855606,76.578194 
z"/>
<path fill="#F7FCFE" opacity="1.000000" stroke="none" 
	d="
M30.537895,89.615189 
	C33.086140,85.730568 35.494480,82.211983 37.987938,78.358841 
	C40.388554,74.694427 42.704052,71.364571 45.106430,67.713791 
	C49.851505,61.698589 53.810246,55.693394 54.193634,47.994942 
	C54.229542,47.273853 54.929428,46.585835 55.541054,45.178467 
	C55.472443,42.305824 55.183811,40.137169 54.895180,37.968517 
	C53.770050,39.912209 52.629856,41.847515 51.538162,43.809803 
	C51.395954,44.065418 51.503334,44.459888 51.495102,44.790039 
	C51.386246,45.099743 51.248108,45.402508 51.172787,45.720161 
	C48.771362,55.848118 48.772278,55.848335 37.368427,54.377140 
	C37.604900,52.198631 37.843666,49.999001 38.050545,47.400360 
	C38.911251,43.250023 39.803852,39.498695 40.737885,35.373009 
	C43.633755,32.736706 46.488197,30.474758 49.669411,28.068443 
	C52.477741,27.900751 54.960247,27.821569 57.440693,27.863811 
	C67.885704,28.041693 70.340607,30.905298 68.748154,41.928772 
	C66.668060,49.757519 64.781624,56.863884 62.619598,64.158890 
	C59.581482,68.571548 56.818962,72.795570 53.786762,77.222511 
	C50.346561,82.088684 47.176037,86.751945 43.391850,92.317787 
	C49.354313,92.317787 53.918304,92.317787 58.851002,92.317787 
	C58.564556,93.861305 58.364670,94.938416 58.164783,96.015518 
	C57.827763,97.953529 57.490734,99.891541 57.083183,102.235100 
	C49.843777,102.235100 42.880344,102.235100 35.456184,102.328583 
	C32.662228,101.896034 30.329002,101.369987 27.930668,100.423645 
	C28.709705,96.662643 29.553850,93.321930 30.537895,89.615189 
z"/>
<path fill="#10AEEC" opacity="1.000000" stroke="none" 
	d="
M62.895195,63.970253 
	C64.781624,56.863884 66.668060,49.757519 68.780090,42.327576 
	C69.696716,41.789146 70.387733,41.574291 71.433884,41.288483 
	C71.035545,45.453857 70.282074,49.690193 69.541206,53.855606 
	C79.711670,56.653496 81.668663,55.570957 84.190033,46.431732 
	C85.704872,46.500164 86.683479,46.828960 87.662094,47.157761 
	C86.465614,55.515663 82.024910,62.295441 76.515091,68.895081 
	C71.577049,67.286453 67.236122,65.628349 62.895195,63.970253 
z"/>
<path fill="#0DA2DF" opacity="1.000000" stroke="none" 
	d="
M58.541252,96.014297 
	C58.364670,94.938416 58.564556,93.861305 58.851002,92.317787 
	C53.918304,92.317787 49.354313,92.317787 43.391850,92.317787 
	C47.176037,86.751945 50.346561,82.088684 54.134308,77.306229 
	C58.887669,79.240646 63.023811,81.294258 67.159950,83.347870 
	C65.302742,87.378700 63.445538,91.409538 61.382244,95.743546 
	C60.423347,96.035500 59.670536,96.024284 58.541252,96.014297 
z"/>
<path fill="#23B7F1" opacity="1.000000" stroke="none" 
	d="
M51.983986,44.822952 
	C51.503334,44.459888 51.395954,44.065418 51.538162,43.809803 
	C52.629856,41.847515 53.770050,39.912209 54.895180,37.968517 
	C55.183811,40.137169 55.472443,42.305824 55.582794,44.773689 
	C54.427299,45.000557 53.450089,44.928215 51.983986,44.822952 
z"/>
<path fill="#0EA7E5" opacity="1.000000" stroke="none" 
	d="
M67.439186,83.139236 
	C63.023811,81.294258 58.887669,79.240646 54.403984,77.103317 
	C56.818962,72.795570 59.581482,68.571548 62.619598,64.158890 
	C67.236122,65.628349 71.577049,67.286453 76.279022,69.114182 
	C73.666183,73.832741 70.692299,78.381676 67.439186,83.139236 
z"/>
<path fill="#21BAF5" opacity="1.000000" stroke="none" 
	d="
M87.808014,46.819664 
	C86.683479,46.828960 85.704872,46.500164 84.347916,46.089371 
	C84.330376,43.930069 84.489471,41.785271 85.150856,39.808540 
	C85.416992,39.013149 86.784630,38.586308 87.650940,37.991730 
	C88.120544,38.898998 89.013481,39.825642 88.973030,40.709572 
	C88.884476,42.645061 88.322533,44.558895 87.808014,46.819664 
z"/>
</svg>