<svg version="1.1" id="Layer_1" xmlns="http://www.w3.org/2000/svg" xmlns:xlink="http://www.w3.org/1999/xlink" x="0px" y="0px"
	 width="100%" viewBox="0 0 526 495" enable-background="new 0 0 526 495" xml:space="preserve">
<path fill="#212220" opacity="1.000000" stroke="none" 
	d="
M527.000000,172.000000 
	C527.000000,280.306946 527.000000,388.113861 527.000000,495.960388 
	C351.735992,495.960388 176.471970,495.960388 1.103977,495.960388 
	C1.103977,331.109772 1.103977,166.219452 1.103977,1.164564 
	C176.333206,1.164564 351.666595,1.164564 527.000000,1.164564 
	C527.000000,57.861324 527.000000,114.680664 527.000000,172.000000 
M503.700775,89.965874 
	C503.684753,87.028152 503.668732,84.090431 503.864044,80.222527 
	C505.166534,65.568138 498.944214,53.586796 489.851654,42.993759 
	C476.433624,27.361490 458.752197,20.495468 438.493896,20.465933 
	C351.834503,20.339596 265.174774,20.459337 178.515305,20.367422 
	C163.406128,20.351398 149.153900,23.439112 135.752640,30.397532 
	C105.571152,46.068851 86.937309,70.189941 81.660545,104.160301 
	C80.281967,113.035240 78.580856,121.860901 76.973877,130.699371 
	C73.790604,148.207550 70.492729,165.695282 67.392441,183.218033 
	C65.449829,194.197571 63.929657,205.252304 61.954823,216.225586 
	C58.920563,233.085632 55.552361,249.885574 52.519733,266.745911 
	C48.779980,287.537567 45.199959,308.358276 41.627861,329.179626 
	C39.714706,340.331238 38.018085,351.519928 36.121109,362.674438 
	C34.615013,371.530457 32.961407,380.361450 31.358316,389.200867 
	C28.034731,407.527069 24.646402,425.841766 21.399540,444.181519 
	C20.155121,451.210541 18.883659,458.264404 18.244848,465.362793 
	C17.582623,472.721252 18.021898,472.875641 25.534636,472.875793 
	C136.025589,472.878052 246.517288,472.666718 357.006897,473.054016 
	C379.062286,473.131317 398.128723,466.458893 415.331360,453.376495 
	C433.454071,439.594513 445.861755,421.697754 450.982483,399.520691 
	C454.681824,383.499359 456.737091,367.099945 459.578827,350.878479 
	C461.071686,342.356720 462.690277,333.857056 464.232025,325.343811 
	C467.403687,307.830444 470.619385,290.324707 473.704468,272.796082 
	C475.608215,261.979736 477.176453,251.103775 479.123657,240.295746 
	C482.160217,223.440887 485.529266,206.645370 488.501801,189.779678 
	C491.763794,171.271484 494.706818,152.707291 497.849060,134.177719 
	C499.100952,126.795448 500.776672,119.475998 501.778168,112.062935 
	C502.727722,105.034309 503.047821,97.920654 503.700775,89.965874 
z"/>
<path fill="#A0C113" opacity="1.000000" stroke="none" 
	d="
M503.652710,81.152710 
	C503.668732,84.090431 503.684753,87.028152 503.423767,90.644073 
	C501.773346,97.122948 500.197571,102.884720 499.073120,108.733269 
	C497.317657,117.863983 495.936462,127.065956 494.271149,136.214890 
	C492.279449,147.157013 490.052246,158.056824 488.118744,169.008789 
	C486.242340,179.637070 484.727356,190.329330 482.834595,200.954468 
	C481.001831,211.243073 478.745972,221.456696 476.939240,231.749466 
	C474.901764,243.356461 473.283173,255.036911 471.250183,266.644745 
	C469.391754,277.255981 467.118530,287.794128 465.221130,298.399048 
	C463.319336,309.028473 461.675446,319.703796 459.881866,330.352844 
	C458.695831,337.394623 457.515106,344.438538 456.206970,351.458221 
	C454.261841,361.895538 451.745667,372.249481 450.313538,382.753571 
	C448.503723,396.028015 445.662201,408.859985 438.995850,420.625000 
	C421.019257,452.350677 393.575165,469.730682 357.374512,469.946991 
	C247.569595,470.603149 137.758255,470.185699 27.949427,470.185333 
	C26.616478,470.185333 25.283491,470.175232 23.950590,470.162567 
	C20.773556,470.132355 20.125965,468.787323 20.860966,465.665314 
	C22.800621,457.426392 24.496590,449.120880 25.989122,440.788055 
	C28.127195,428.851196 29.919416,416.852692 32.007298,404.906372 
	C33.836136,394.442230 35.960777,384.029724 37.786388,373.565033 
	C39.670753,362.763489 41.342232,351.924896 43.125599,341.105591 
	C44.231842,334.394257 45.277298,327.670898 46.519997,320.984528 
	C48.579678,309.902374 50.894028,298.866699 52.881233,287.772064 
	C54.754673,277.312592 56.240692,266.783936 58.087650,256.319366 
	C59.991642,245.531647 62.229053,234.802750 64.130585,224.014618 
	C66.149071,212.562881 67.827980,201.051041 69.871819,189.604126 
	C71.679398,179.480408 73.920174,169.433960 75.721497,159.309235 
	C77.611839,148.684219 79.081017,137.984329 80.967102,127.358482 
	C82.794212,117.064949 84.369553,106.676750 87.076355,96.604485 
	C89.423988,87.868690 92.206772,78.962067 96.580925,71.126717 
	C102.996124,59.635262 111.816025,49.912189 122.793877,42.131714 
	C138.283646,31.153456 154.932571,24.671499 174.196350,24.706293 
	C262.009827,24.864899 349.823700,24.772097 437.637451,24.778841 
	C446.121490,24.779493 454.380096,25.044672 462.630310,28.274185 
	C481.481506,35.653435 493.832001,48.496151 499.335175,67.988503 
	C500.588837,72.428955 502.203949,76.767349 503.652710,81.152710 
M252.294113,363.492706 
	C252.438110,366.471161 253.406357,368.781128 256.982208,368.891083 
	C256.982208,368.891083 257.222961,368.825348 257.012360,369.546814 
	C259.634186,372.379822 262.256012,375.212860 265.264099,378.621918 
	C271.516815,382.930115 278.271362,385.808960 286.744812,385.996704 
	C288.476837,385.834869 290.208893,385.673065 292.122772,386.201721 
	C296.411285,389.174774 300.742615,388.771820 305.967499,386.284271 
	C317.126892,385.836060 327.616974,382.569397 336.786926,376.539246 
	C351.367737,366.950928 359.646942,353.044220 362.122803,335.621704 
	C363.841797,323.525146 366.723297,311.562653 367.856079,299.425537 
	C368.546844,292.024445 368.943695,283.437225 365.919006,277.071136 
	C357.719666,259.813751 347.591187,243.475571 338.294800,226.735611 
	C333.971313,218.950394 329.803406,211.078812 325.621857,202.533188 
	C324.539185,200.602295 323.456512,198.671417 322.293640,196.158417 
	C322.227051,195.772415 322.160461,195.386398 322.409210,194.287613 
	C322.272186,191.191757 322.135193,188.095886 322.075348,184.129807 
	C323.222809,177.478226 324.252808,170.803452 325.559631,164.183334 
	C326.410980,159.870605 327.350830,155.526306 328.811554,151.394318 
	C331.049316,145.064285 337.348206,141.926575 343.307220,143.693771 
	C348.654358,145.279510 350.037842,149.226486 348.541229,157.193588 
	C347.691864,161.715042 347.398346,166.340912 346.282806,171.283844 
	C345.836548,173.854034 345.390259,176.424240 344.871246,179.615509 
	C344.807007,180.027405 344.742767,180.439301 344.216919,181.211594 
	C344.148010,182.474655 344.079102,183.737701 343.973724,185.806747 
	C343.845184,187.144104 343.716644,188.481476 343.093353,190.276016 
	C342.242493,194.300919 341.391663,198.325821 340.521912,203.060364 
	C340.518738,204.242325 340.515564,205.424271 340.445251,207.377747 
	C341.086823,211.014786 343.972992,210.901535 346.614594,210.917526 
	C356.905731,210.979858 367.197815,210.999054 377.488861,210.933807 
	C384.784912,210.887558 387.928162,206.459076 386.163544,198.303284 
	C386.255615,197.599228 386.347687,196.895172 386.848755,195.861725 
	C386.889038,194.907227 386.929352,193.952744 387.009216,192.192795 
	C387.143921,190.856873 387.278595,189.520966 387.922638,187.757980 
	C388.602814,184.171036 389.282959,180.584076 390.024597,176.231445 
	C390.157135,175.216156 390.289673,174.200867 390.830627,172.855743 
	C390.860443,171.902573 390.890259,170.949402 390.960327,169.190277 
	C391.103058,167.854309 391.245789,166.518341 391.940704,164.785110 
	C392.634125,160.857300 393.327545,156.929489 394.045837,152.067947 
	C394.016724,147.046616 393.987640,142.025284 394.282776,136.473495 
	C393.526978,134.978729 392.771179,133.483978 391.759399,131.346115 
	C391.316071,130.035751 390.872742,128.725388 390.510559,126.717010 
	C389.370789,125.456787 388.230988,124.196556 386.907196,122.598656 
	C386.907196,122.598656 386.746277,122.249382 386.684082,121.554276 
	C385.376068,120.450218 384.068085,119.346161 382.166412,117.941498 
	C380.121185,116.613350 378.075958,115.285210 375.818878,113.336449 
	C373.882416,112.526375 371.945984,111.716309 369.402100,110.806412 
	C368.998993,110.729614 368.595886,110.652817 367.765503,110.079659 
	C364.511200,109.377487 361.256927,108.675316 357.194366,107.941963 
	C355.852356,107.825340 354.510376,107.708717 352.634308,107.091049 
	C348.035156,107.264961 343.436035,107.438866 338.069275,107.695335 
	C337.042694,107.767792 336.016113,107.840248 334.344574,107.560593 
	C330.824677,108.538780 327.304810,109.516968 323.090210,110.626282 
	C322.391479,110.733040 321.692749,110.839790 320.441711,110.703293 
	C318.572968,111.707817 316.704193,112.712341 314.205658,113.964005 
	C313.140839,114.332481 312.076050,114.700958 310.524048,114.816269 
	C309.328522,115.847412 308.132965,116.878548 306.361267,118.260742 
	C301.575012,122.841141 296.788788,127.421539 291.449524,132.260361 
	C291.124786,132.962311 290.800079,133.664276 290.319763,134.901413 
	C290.183655,135.247055 290.047577,135.592697 289.283997,136.151260 
	C288.668884,137.219482 288.053802,138.287704 287.303864,140.053711 
	C287.075287,140.973297 286.846741,141.892883 286.088440,143.169739 
	C285.349640,145.441391 284.610840,147.713028 283.781342,150.595001 
	C283.710693,151.000229 283.640045,151.405472 283.160645,152.137772 
	C283.105743,153.091766 283.050842,154.045761 282.952179,155.768127 
	C282.847229,156.788681 282.742249,157.809219 282.110168,159.252243 
	C281.386566,163.166275 280.662994,167.080322 279.887848,171.758392 
	C279.761047,172.771088 279.634247,173.783798 279.113678,175.138336 
	C279.093781,176.093124 279.073853,177.047897 279.011475,178.772476 
	C278.896301,179.793655 278.781128,180.814819 278.095367,182.231140 
	C273.664062,191.988037 273.977875,201.886856 277.283325,211.846405 
	C277.460663,212.380707 278.229248,212.718811 278.852173,213.761139 
	C278.926056,214.172150 278.999908,214.583145 278.843353,215.369614 
	C279.109802,215.972610 279.376251,216.575592 279.799194,217.780380 
	C279.893829,218.183929 279.988464,218.587479 279.802612,219.483749 
	C280.557556,220.638443 281.312500,221.793137 282.350159,223.586060 
	C282.745483,224.924667 283.140778,226.263275 283.463898,228.281586 
	C284.280579,229.207825 285.097260,230.134079 286.225342,231.687042 
	C287.922363,235.029037 289.619385,238.371017 291.324249,242.386124 
	C292.187927,243.277344 293.051636,244.168579 294.138306,245.571518 
	C294.255554,245.924423 294.372833,246.277313 294.490509,247.251678 
	C295.016846,247.815277 295.543152,248.378891 296.569000,249.412369 
	C298.864197,252.994690 301.417145,256.440155 303.405762,260.185272 
	C309.154419,271.011414 314.675995,281.958130 320.381653,293.428711 
	C320.759644,294.082367 321.137665,294.735992 321.573822,296.114075 
	C321.702667,297.074402 321.831512,298.034729 321.614532,299.717896 
	C321.704346,303.483887 321.794159,307.249908 321.789429,311.843292 
	C321.426941,315.147675 321.064453,318.452087 320.187744,322.231445 
	C319.443848,326.489258 318.699921,330.747040 317.850891,335.732239 
	C317.743988,336.706116 317.637085,337.680023 317.072266,339.120392 
	C316.498749,340.803711 315.925232,342.487000 315.157745,344.565063 
	C315.157745,344.565063 314.967834,344.961761 314.429108,345.202637 
	C314.064758,345.859650 313.700409,346.516663 312.771393,347.618408 
	C311.533844,348.439850 310.369751,349.411652 309.046539,350.057709 
	C301.905426,353.544250 295.102356,349.374969 295.093414,341.560028 
	C295.090942,339.410156 295.108215,337.260284 295.593201,334.736847 
	C295.665741,333.501312 295.738312,332.265747 296.038513,330.367889 
	C296.148712,329.677063 296.258881,328.986267 296.895874,327.838654 
	C297.620850,323.889862 298.345856,319.941071 299.162537,315.219788 
	C299.277954,313.929749 299.393372,312.639679 299.887543,310.970062 
	C299.934662,309.978851 299.981781,308.987671 300.112152,307.398132 
	C300.143646,306.996735 300.175140,306.595306 300.730377,305.812653 
	C301.098297,303.883606 301.466217,301.954529 301.984253,299.185791 
	C302.281982,294.760132 302.579742,290.334442 302.934448,285.289215 
	C302.936432,284.874512 302.938416,284.459808 303.341187,283.363464 
	C303.405243,282.579559 303.469299,281.795624 303.886871,280.771576 
	C303.250763,280.202698 302.614685,279.633789 301.046478,278.986725 
	C288.703400,279.021027 276.360321,279.055328 263.519958,278.803497 
	C259.554169,279.248962 259.591003,282.041229 259.826569,285.796967 
	C259.764923,287.145782 259.703247,288.494629 259.108978,290.191742 
	C258.688019,292.120117 258.267059,294.048492 257.766022,296.599426 
	C257.718384,297.015167 257.670746,297.430939 257.168701,298.205902 
	C257.059113,299.464050 256.949493,300.722168 256.792297,302.788025 
	C256.697723,304.130127 256.603180,305.472198 256.113831,307.141815 
	C256.031128,308.089844 255.948395,309.037842 255.789825,310.608704 
	C255.751038,311.025146 255.712250,311.441620 255.148178,312.269073 
	C254.689758,314.834503 254.231339,317.399933 253.721283,320.591156 
	C253.683792,321.008057 253.646317,321.424957 253.187912,322.157928 
	C253.148865,323.107361 253.109802,324.056763 253.034393,325.925964 
	C253.249374,327.420563 253.464355,328.915131 253.451080,330.750031 
	C253.451080,330.750031 253.140579,331.017395 252.480072,331.279327 
	C250.077774,335.209778 248.093079,339.223053 249.964569,344.909180 
	C249.954086,347.947327 249.943604,350.985474 249.601318,354.585052 
	C250.300385,356.380890 250.999451,358.176758 251.910233,360.652100 
	C252.074295,361.344055 252.238342,362.036011 252.294113,363.492706 
M167.855347,152.052933 
	C167.139938,154.962402 166.232269,157.840012 165.743851,160.787094 
	C164.031723,171.118073 162.544510,181.486435 160.817215,191.814743 
	C159.310272,200.825577 157.630417,209.808167 155.961639,218.791092 
	C154.080856,228.915329 151.996704,239.003418 150.240173,249.148636 
	C148.341049,260.117615 146.865677,271.160309 144.942108,282.124634 
	C141.613052,301.100342 138.106445,320.045135 134.624680,338.993774 
	C132.373444,351.245544 130.008774,363.476471 127.741943,375.725433 
	C126.006882,385.101013 127.413696,386.820099 136.748993,386.841644 
	C145.912888,386.862793 155.077072,386.878082 164.240784,386.829285 
	C170.881638,386.793945 172.910797,385.085632 173.914368,378.648071 
	C174.555161,374.537506 174.844650,370.368866 175.566925,366.274841 
	C179.144669,345.995697 182.860382,325.740936 186.435867,305.461395 
	C189.117813,290.249908 191.684616,275.017944 194.250443,259.786255 
	C194.951569,255.624161 197.264084,253.864929 201.483887,253.903183 
	C213.645905,254.013474 225.810013,253.880783 237.972458,253.964722 
	C242.684830,253.997223 245.597198,252.057236 246.421509,247.312851 
	C247.586731,240.606415 248.908844,233.922256 249.873611,227.186996 
	C251.880905,213.173630 251.802551,213.162430 237.795502,213.165237 
	C227.798477,213.167252 217.798828,213.281448 207.807297,213.048050 
	C206.336624,213.013687 203.581451,211.188934 203.662445,210.432617 
	C204.350830,204.004272 205.521286,197.625137 206.618378,191.243484 
	C208.700714,179.130844 211.034775,167.057007 212.857956,154.906082 
	C213.839890,148.361816 214.867142,147.009583 221.719772,146.996613 
	C234.215988,146.972977 246.713638,146.876129 259.207825,147.033997 
	C263.643066,147.090042 265.922302,145.519348 266.604156,140.963745 
	C267.858032,132.586136 269.292389,124.220451 271.080109,115.942360 
	C272.637360,108.731499 271.505768,106.829926 264.172089,106.347473 
	C263.175751,106.281921 262.173706,106.285179 261.174316,106.285049 
	C236.015091,106.281792 210.855850,106.262123 185.696671,106.293503 
	C177.160904,106.304146 174.712967,108.394730 173.385818,116.722778 
	C171.554901,128.212311 169.796463,139.713379 167.855347,152.052933 
z"/>
<path fill="#718618" opacity="1.000000" stroke="none" 
	d="
M503.758362,80.687622 
	C502.203949,76.767349 500.588837,72.428955 499.335175,67.988503 
	C493.832001,48.496151 481.481506,35.653435 462.630310,28.274185 
	C454.380096,25.044672 446.121490,24.779493 437.637451,24.778841 
	C349.823700,24.772097 262.009827,24.864899 174.196350,24.706293 
	C154.932571,24.671499 138.283646,31.153456 122.793877,42.131714 
	C111.816025,49.912189 102.996124,59.635262 96.580925,71.126717 
	C92.206772,78.962067 89.423988,87.868690 87.076355,96.604485 
	C84.369553,106.676750 82.794212,117.064949 80.967102,127.358482 
	C79.081017,137.984329 77.611839,148.684219 75.721497,159.309235 
	C73.920174,169.433960 71.679398,179.480408 69.871819,189.604126 
	C67.827980,201.051041 66.149071,212.562881 64.130585,224.014618 
	C62.229053,234.802750 59.991642,245.531647 58.087650,256.319366 
	C56.240692,266.783936 54.754673,277.312592 52.881233,287.772064 
	C50.894028,298.866699 48.579678,309.902374 46.519997,320.984528 
	C45.277298,327.670898 44.231842,334.394257 43.125599,341.105591 
	C41.342232,351.924896 39.670753,362.763489 37.786388,373.565033 
	C35.960777,384.029724 33.836136,394.442230 32.007298,404.906372 
	C29.919416,416.852692 28.127195,428.851196 25.989122,440.788055 
	C24.496590,449.120880 22.800621,457.426392 20.860966,465.665314 
	C20.125965,468.787323 20.773556,470.132355 23.950590,470.162567 
	C25.283491,470.175232 26.616478,470.185333 27.949427,470.185333 
	C137.758255,470.185699 247.569595,470.603149 357.374512,469.946991 
	C393.575165,469.730682 421.019257,452.350677 438.995850,420.625000 
	C445.662201,408.859985 448.503723,396.028015 450.313538,382.753571 
	C451.745667,372.249481 454.261841,361.895538 456.206970,351.458221 
	C457.515106,344.438538 458.695831,337.394623 459.881866,330.352844 
	C461.675446,319.703796 463.319336,309.028473 465.221130,298.399048 
	C467.118530,287.794128 469.391754,277.255981 471.250183,266.644745 
	C473.283173,255.036911 474.901764,243.356461 476.939240,231.749466 
	C478.745972,221.456696 481.001831,211.243073 482.834595,200.954468 
	C484.727356,190.329330 486.242340,179.637070 488.118744,169.008789 
	C490.052246,158.056824 492.279449,147.157013 494.271149,136.214890 
	C495.936462,127.065956 497.317657,117.863983 499.073120,108.733269 
	C500.197571,102.884720 501.773346,97.122948 503.395782,91.083328 
	C503.047821,97.920654 502.727722,105.034309 501.778168,112.062935 
	C500.776672,119.475998 499.100952,126.795448 497.849060,134.177719 
	C494.706818,152.707291 491.763794,171.271484 488.501801,189.779678 
	C485.529266,206.645370 482.160217,223.440887 479.123657,240.295746 
	C477.176453,251.103775 475.608215,261.979736 473.704468,272.796082 
	C470.619385,290.324707 467.403687,307.830444 464.232025,325.343811 
	C462.690277,333.857056 461.071686,342.356720 459.578827,350.878479 
	C456.737091,367.099945 454.681824,383.499359 450.982483,399.520691 
	C445.861755,421.697754 433.454071,439.594513 415.331360,453.376495 
	C398.128723,466.458893 379.062286,473.131317 357.006897,473.054016 
	C246.517288,472.666718 136.025589,472.878052 25.534636,472.875793 
	C18.021898,472.875641 17.582623,472.721252 18.244848,465.362793 
	C18.883659,458.264404 20.155121,451.210541 21.399540,444.181519 
	C24.646402,425.841766 28.034731,407.527069 31.358316,389.200867 
	C32.961407,380.361450 34.615013,371.530457 36.121109,362.674438 
	C38.018085,351.519928 39.714706,340.331238 41.627861,329.179626 
	C45.199959,308.358276 48.779980,287.537567 52.519733,266.745911 
	C55.552361,249.885574 58.920563,233.085632 61.954823,216.225586 
	C63.929657,205.252304 65.449829,194.197571 67.392441,183.218033 
	C70.492729,165.695282 73.790604,148.207550 76.973877,130.699371 
	C78.580856,121.860901 80.281967,113.035240 81.660545,104.160301 
	C86.937309,70.189941 105.571152,46.068851 135.752640,30.397532 
	C149.153900,23.439112 163.406128,20.351398 178.515305,20.367422 
	C265.174774,20.459337 351.834503,20.339596 438.493896,20.465933 
	C458.752197,20.495468 476.433624,27.361490 489.851654,42.993759 
	C498.944214,53.586796 505.166534,65.568138 503.758362,80.687622 
z"/>
<path fill="#030300" opacity="1.000000" stroke="none" 
	d="
M253.140579,331.017395 
	C253.140579,331.017395 253.451080,330.750031 253.880341,330.469879 
	C255.219879,327.748383 256.547699,325.376678 256.968384,322.853699 
	C258.824066,311.724274 260.448700,300.555756 262.095428,289.392303 
	C263.008057,283.205475 264.172302,282.067535 270.455688,282.025848 
	C278.436127,281.972900 286.423096,281.839478 294.394836,282.108459 
	C297.261871,282.205200 300.092926,283.368561 302.940399,284.045105 
	C302.938416,284.459808 302.936432,284.874512 302.591125,285.740417 
	C301.251068,289.155670 299.863251,292.050446 299.324188,295.095490 
	C296.802704,309.338837 294.429413,323.610321 292.220001,337.905273 
	C291.802643,340.605499 291.812164,343.628540 292.600830,346.203705 
	C294.136108,351.216858 298.739838,353.917053 304.255096,353.842041 
	C310.487549,353.757263 317.005981,349.635071 318.440399,343.887085 
	C320.485779,335.690796 321.113495,327.097015 323.613007,319.067139 
	C328.505188,303.350342 324.061798,289.408325 316.421814,276.151062 
	C308.049683,261.623291 298.793457,247.608139 290.161438,233.226181 
	C281.781525,219.264297 277.532379,204.280563 280.455902,187.870270 
	C282.727570,175.118942 285.115936,162.387741 287.545898,149.665451 
	C291.446198,129.245438 311.918335,113.424667 331.502747,111.933830 
	C340.913300,111.217461 350.496155,110.993042 359.868469,111.906128 
	C380.953796,113.960350 393.791840,128.807999 390.663818,150.251541 
	C388.145081,167.518341 384.971222,184.688797 382.240631,201.926163 
	C381.695129,205.369553 379.782532,206.290466 376.744080,206.282257 
	C367.581238,206.257477 358.417999,206.249939 349.255371,206.305756 
	C345.434845,206.329025 343.752686,204.944733 344.522614,200.823807 
	C346.934875,187.912415 349.238068,174.978775 351.387909,162.021286 
	C352.064941,157.940872 352.570679,153.734329 352.351501,149.628372 
	C352.093475,144.794693 349.101959,141.808640 344.192383,140.925858 
	C333.978210,139.089203 326.935547,143.671921 324.755188,153.950760 
	C322.512482,164.523468 320.402802,175.129745 318.548401,185.775925 
	C318.049347,188.641052 317.963989,191.976227 318.952972,194.623291 
	C321.327148,200.977859 323.979675,207.324265 327.362091,213.188141 
	C337.151245,230.158905 347.763428,246.664734 357.236176,263.804260 
	C362.499420,273.327332 367.442719,283.441040 366.071716,294.981110 
	C365.446045,300.247559 364.141968,305.433502 363.142426,310.655396 
	C360.800903,322.887848 359.311066,335.362762 355.915894,347.295563 
	C350.750671,365.449554 337.683594,376.086517 319.642181,380.745819 
	C313.750702,382.267365 307.767090,383.432434 301.402954,384.751038 
	C298.717560,384.748199 296.454834,384.754791 293.965332,384.500671 
	C291.146606,384.078003 288.554688,383.916046 285.739807,383.691589 
	C285.210876,383.571472 284.908508,383.586639 284.341644,383.427979 
	C278.468506,380.937195 272.676361,379.059174 267.323181,376.322418 
	C263.641174,374.440002 260.568176,371.366486 257.222961,368.825348 
	C257.222961,368.825348 256.982208,368.891083 257.001221,368.633667 
	C256.792450,367.678314 256.564667,366.980347 256.414124,365.945557 
	C255.447250,363.730621 254.403152,361.852539 253.307098,359.594055 
	C253.081757,358.466187 252.908356,357.718750 252.961029,356.631042 
	C253.055450,350.870392 252.923813,345.449982 252.876221,339.638367 
	C253.078705,338.187378 253.197128,337.127655 253.553070,335.916443 
	C253.791428,334.361755 253.792267,332.958557 253.677292,331.363464 
	C253.561462,331.171631 253.140579,331.017395 253.140579,331.017395 
z"/>
<path fill="#4E5E09" opacity="1.000000" stroke="none" 
	d="
M301.825592,384.760498 
	C307.767090,383.432434 313.750702,382.267365 319.642181,380.745819 
	C337.683594,376.086517 350.750671,365.449554 355.915894,347.295563 
	C359.311066,335.362762 360.800903,322.887848 363.142426,310.655396 
	C364.141968,305.433502 365.446045,300.247559 366.071716,294.981110 
	C367.442719,283.441040 362.499420,273.327332 357.236176,263.804260 
	C347.763428,246.664734 337.151245,230.158905 327.362091,213.188141 
	C323.979675,207.324265 321.327148,200.977859 318.952972,194.623291 
	C317.963989,191.976227 318.049347,188.641052 318.548401,185.775925 
	C320.402802,175.129745 322.512482,164.523468 324.755188,153.950760 
	C326.935547,143.671921 333.978210,139.089203 344.192383,140.925858 
	C349.101959,141.808640 352.093475,144.794693 352.351501,149.628372 
	C352.570679,153.734329 352.064941,157.940872 351.387909,162.021286 
	C349.238068,174.978775 346.934875,187.912415 344.522614,200.823807 
	C343.752686,204.944733 345.434845,206.329025 349.255371,206.305756 
	C358.417999,206.249939 367.581238,206.257477 376.744080,206.282257 
	C379.782532,206.290466 381.695129,205.369553 382.240631,201.926163 
	C384.971222,184.688797 388.145081,167.518341 390.663818,150.251541 
	C393.791840,128.807999 380.953796,113.960350 359.868469,111.906128 
	C350.496155,110.993042 340.913300,111.217461 331.502747,111.933830 
	C311.918335,113.424667 291.446198,129.245438 287.545898,149.665451 
	C285.115936,162.387741 282.727570,175.118942 280.455902,187.870270 
	C277.532379,204.280563 281.781525,219.264297 290.161438,233.226181 
	C298.793457,247.608139 308.049683,261.623291 316.421814,276.151062 
	C324.061798,289.408325 328.505188,303.350342 323.613007,319.067139 
	C321.113495,327.097015 320.485779,335.690796 318.440399,343.887085 
	C317.005981,349.635071 310.487549,353.757263 304.255096,353.842041 
	C298.739838,353.917053 294.136108,351.216858 292.600830,346.203705 
	C291.812164,343.628540 291.802643,340.605499 292.220001,337.905273 
	C294.429413,323.610321 296.802704,309.338837 299.324188,295.095490 
	C299.863251,292.050446 301.251068,289.155670 302.562653,286.050232 
	C302.579742,290.334442 302.281982,294.760132 301.710815,299.892822 
	C301.027130,302.464569 300.616882,304.329224 300.206665,306.193909 
	C300.175140,306.595306 300.143646,306.996735 299.891907,307.998260 
	C299.617371,309.515472 299.563080,310.432556 299.508789,311.349640 
	C299.393372,312.639679 299.277954,313.929749 298.904572,315.918884 
	C297.887421,320.510468 297.128235,324.402954 296.369049,328.295441 
	C296.258881,328.986267 296.148712,329.677063 295.730469,330.990112 
	C295.320435,332.778351 295.218445,333.944366 295.116455,335.110413 
	C295.108215,337.260284 295.090942,339.410156 295.093414,341.560028 
	C295.102356,349.374969 301.905426,353.544250 309.046539,350.057709 
	C310.369751,349.411652 311.533844,348.439850 313.294189,347.247162 
	C314.200623,346.237854 314.584229,345.599792 314.967834,344.961761 
	C314.967834,344.961761 315.157745,344.565063 315.525818,344.181702 
	C316.439301,342.083527 316.984741,340.368713 317.530151,338.653900 
	C317.637085,337.680023 317.743988,336.706116 318.114197,335.055023 
	C319.152344,330.170685 319.927124,325.963593 320.701935,321.756470 
	C321.064453,318.452087 321.426941,315.147675 322.054382,311.082275 
	C322.199677,306.545868 322.080017,302.770477 321.960388,298.995056 
	C321.831512,298.034729 321.702667,297.074402 321.571045,295.444305 
	C321.141083,294.135529 320.713898,293.496490 320.286743,292.857483 
	C314.675995,281.958130 309.154419,271.011414 303.405762,260.185272 
	C301.417145,256.440155 298.864197,252.994690 296.240906,248.900711 
	C295.438568,247.802765 294.964325,247.216492 294.490082,246.630219 
	C294.372833,246.277313 294.255554,245.924423 293.979065,244.998474 
	C292.985352,243.521286 292.150879,242.617142 291.316406,241.712997 
	C289.619385,238.371017 287.922363,235.029037 286.031616,231.059265 
	C285.070648,229.488281 284.303375,228.545074 283.536102,227.601883 
	C283.140778,226.263275 282.745483,224.924667 282.172363,222.943863 
	C281.357391,221.198120 280.720245,220.094574 280.083099,218.991028 
	C279.988464,218.587479 279.893829,218.183929 279.750549,217.187927 
	C279.492523,216.061691 279.283142,215.527924 279.073761,214.994156 
	C278.999908,214.583145 278.926056,214.172150 278.801636,213.055725 
	C278.153534,206.604523 277.166992,200.864334 277.084351,195.111145 
	C277.020874,190.694580 278.096741,186.261658 278.665955,181.835999 
	C278.781128,180.814819 278.896301,179.793655 279.201294,178.098038 
	C279.429901,176.547897 279.468658,175.672211 279.507446,174.796509 
	C279.634247,173.783798 279.761047,172.771088 280.128601,171.067200 
	C281.125336,166.527267 281.881317,162.678513 282.637268,158.829773 
	C282.742249,157.809219 282.847229,156.788681 283.154175,155.100983 
	C283.427246,153.559464 283.498322,152.685089 283.569397,151.810699 
	C283.640045,151.405472 283.710693,151.000229 284.066833,150.034851 
	C285.107605,147.253967 285.862885,145.033218 286.618164,142.812469 
	C286.846741,141.892883 287.075287,140.973297 287.636719,139.543762 
	C288.616882,138.001968 289.264160,136.970139 289.911499,135.938324 
	C290.047577,135.592697 290.183655,135.247055 290.624939,134.456589 
	C291.287628,133.341827 291.645081,132.671890 292.002533,132.001938 
	C296.788788,127.421539 301.575012,122.841141 306.974304,118.052391 
	C308.728638,116.919159 309.869934,115.994286 311.011230,115.069427 
	C312.076050,114.700958 313.140839,114.332481 314.869324,113.834312 
	C317.353302,112.785255 319.173645,111.865891 320.994019,110.946533 
	C321.692749,110.839790 322.391479,110.733040 323.832031,110.608253 
	C328.045715,109.697716 331.517639,108.805214 334.989532,107.912704 
	C336.016113,107.840248 337.042694,107.767792 338.921783,107.762222 
	C344.238983,107.750107 348.703674,107.671104 353.168365,107.592094 
	C354.510376,107.708717 355.852356,107.825340 357.890991,108.180031 
	C361.789368,109.137405 364.991058,109.856720 368.192780,110.576027 
	C368.595886,110.652817 368.998993,110.729614 369.954163,111.086754 
	C372.347717,112.230423 374.189209,113.093750 376.030731,113.957069 
	C378.075958,115.285210 380.121185,116.613350 382.579742,118.392883 
	C384.244141,119.979309 385.495209,121.114349 386.746277,122.249390 
	C386.746277,122.249382 386.907196,122.598656 387.039978,123.095619 
	C388.258270,124.866730 389.343842,126.140884 390.429413,127.415024 
	C390.872742,128.725388 391.316071,130.035751 391.910950,132.011841 
	C392.694489,134.119690 393.326508,135.561813 393.958527,137.003952 
	C393.987640,142.025284 394.016724,147.046616 393.831665,152.856216 
	C392.874481,157.490448 392.131500,161.336411 391.388519,165.182373 
	C391.245789,166.518341 391.103058,167.854309 390.769897,169.879913 
	C390.527039,171.441559 390.474640,172.313568 390.422211,173.185593 
	C390.289673,174.200867 390.157135,175.216156 389.783203,176.915283 
	C388.832306,181.127747 388.122803,184.656403 387.413269,188.185043 
	C387.278595,189.520966 387.143921,190.856873 386.812958,192.880341 
	C386.557739,194.442291 386.498779,195.316711 386.439789,196.191116 
	C386.347687,196.895172 386.255615,197.599228 385.914673,198.952118 
	C382.580750,209.064575 382.580750,209.064407 372.421997,209.066406 
	C364.589935,209.067963 356.748962,209.284149 348.930511,208.958694 
	C346.096741,208.840729 343.316895,207.428116 340.512390,206.606232 
	C340.515564,205.424271 340.518738,204.242325 340.771301,202.455673 
	C341.876465,197.840271 342.732269,193.829544 343.588074,189.818832 
	C343.716644,188.481476 343.845184,187.144104 344.182617,185.098618 
	C344.487213,183.210724 344.582886,182.030960 344.678528,180.851196 
	C344.742767,180.439301 344.807007,180.027405 345.133606,179.010864 
	C345.882141,175.910751 346.368317,173.415253 346.854492,170.919754 
	C347.398346,166.340912 347.691864,161.715042 348.541229,157.193588 
	C350.037842,149.226486 348.654358,145.279510 343.307220,143.693771 
	C337.348206,141.926575 331.049316,145.064285 328.811554,151.394318 
	C327.350830,155.526306 326.410980,159.870605 325.559631,164.183334 
	C324.252808,170.803452 323.222809,177.478226 321.834839,184.906662 
	C321.760834,188.789139 321.927338,191.894775 322.093872,195.000397 
	C322.160461,195.386398 322.227051,195.772415 322.310852,196.811340 
	C323.407013,199.391632 324.485992,201.319000 325.564972,203.246368 
	C329.803406,211.078812 333.971313,218.950394 338.294800,226.735611 
	C347.591187,243.475571 357.719666,259.813751 365.919006,277.071136 
	C368.943695,283.437225 368.546844,292.024445 367.856079,299.425537 
	C366.723297,311.562653 363.841797,323.525146 362.122803,335.621704 
	C359.646942,353.044220 351.367737,366.950928 336.786926,376.539246 
	C327.616974,382.569397 317.126892,385.836060 305.202698,386.171387 
	C303.567108,385.625824 302.696350,385.193176 301.825592,384.760498 
z"/>
<path fill="#70880D" opacity="1.000000" stroke="none" 
	d="
M167.931152,151.631226 
	C169.796463,139.713379 171.554901,128.212311 173.385818,116.722778 
	C174.712967,108.394730 177.160904,106.304146 185.696671,106.293503 
	C210.855850,106.262123 236.015091,106.281792 261.174316,106.285049 
	C262.173706,106.285179 263.175751,106.281921 264.172089,106.347473 
	C271.505768,106.829926 272.637360,108.731499 271.080109,115.942360 
	C269.292389,124.220451 267.858032,132.586136 266.604156,140.963745 
	C265.922302,145.519348 263.643066,147.090042 259.207825,147.033997 
	C246.713638,146.876129 234.215988,146.972977 221.719772,146.996613 
	C214.867142,147.009583 213.839890,148.361816 212.857956,154.906082 
	C211.034775,167.057007 208.700714,179.130844 206.618378,191.243484 
	C205.521286,197.625137 204.350830,204.004272 203.662445,210.432617 
	C203.581451,211.188934 206.336624,213.013687 207.807297,213.048050 
	C217.798828,213.281448 227.798477,213.167252 237.795502,213.165237 
	C251.802551,213.162430 251.880905,213.173630 249.873611,227.186996 
	C248.908844,233.922256 247.586731,240.606415 246.421509,247.312851 
	C245.597198,252.057236 242.684830,253.997223 237.972458,253.964722 
	C225.810013,253.880783 213.645905,254.013474 201.483887,253.903183 
	C197.264084,253.864929 194.951569,255.624161 194.250443,259.786255 
	C191.684616,275.017944 189.117813,290.249908 186.435867,305.461395 
	C182.860382,325.740936 179.144669,345.995697 175.566925,366.274841 
	C174.844650,370.368866 174.555161,374.537506 173.914368,378.648071 
	C172.910797,385.085632 170.881638,386.793945 164.240784,386.829285 
	C155.077072,386.878082 145.912888,386.862793 136.748993,386.841644 
	C127.413696,386.820099 126.006882,385.101013 127.741943,375.725433 
	C130.008774,363.476471 132.373444,351.245544 134.624680,338.993774 
	C138.106445,320.045135 141.613052,301.100342 144.942108,282.124634 
	C146.865677,271.160309 148.341049,260.117615 150.240173,249.148636 
	C151.996704,239.003418 154.080856,228.915329 155.961639,218.791092 
	C157.630417,209.808167 159.310272,200.825577 160.817215,191.814743 
	C162.544510,181.486435 164.031723,171.118073 165.743851,160.787094 
	C166.232269,157.840012 167.139938,154.962402 167.931152,151.631226 
M131.606750,375.549561 
	C131.571533,375.914185 131.536316,376.278839 130.982285,377.061523 
	C130.332199,379.480865 127.142578,382.348419 132.940903,384.019073 
	C134.292145,384.073639 135.643402,384.128204 137.743958,384.510498 
	C145.832932,384.396393 153.921906,384.282288 162.755768,384.228302 
	C163.502213,384.209656 164.248672,384.191040 165.581482,384.470642 
	C169.635284,385.195770 170.368484,382.263550 170.896072,379.420532 
	C173.869141,363.399994 176.818665,347.374573 179.659012,331.330078 
	C182.875900,313.158600 185.825180,294.938599 189.179611,276.793091 
	C190.742249,268.340149 192.986145,260.013184 195.866165,251.564575 
	C210.607178,251.410843 225.348190,251.257095 240.810394,251.007767 
	C241.883606,249.054199 243.481308,247.214401 243.934174,245.126297 
	C245.447693,238.147400 246.360062,231.038315 247.867737,224.057938 
	C249.293167,217.458267 248.354095,215.969574 241.484833,215.937973 
	C230.340927,215.886673 219.196503,215.955856 208.052414,215.928848 
	C200.845078,215.911392 199.914352,214.629120 201.194382,207.626007 
	C203.644089,194.223618 205.772202,180.760040 208.392487,167.392151 
	C209.882919,159.788452 212.083130,152.323883 214.904617,144.753098 
	C230.160049,144.605408 245.415466,144.457718 261.390320,144.443832 
	C262.360382,143.447067 263.974915,142.576187 264.198120,141.433502 
	C265.921570,132.612061 267.488220,123.755394 268.861694,114.872261 
	C269.467987,110.950974 267.405060,108.964828 263.393219,108.967628 
	C236.561493,108.986382 209.729767,108.996368 182.898071,108.965805 
	C179.488480,108.961922 177.631073,110.587090 177.010117,113.835037 
	C175.946808,119.396713 174.824783,124.947823 173.825424,130.520935 
	C170.475037,149.204926 167.166565,167.896439 163.844727,186.585541 
	C160.901398,203.145081 157.920380,219.698044 155.031387,236.267044 
	C151.828110,254.638580 148.757950,273.033325 145.543884,291.402954 
	C140.952271,317.645966 136.267090,343.872650 131.684387,370.117218 
	C131.408295,371.698334 131.683228,373.375641 131.606750,375.549561 
z"/>
<path fill="#4E5E09" opacity="1.000000" stroke="none" 
	d="
M303.140808,283.704285 
	C300.092926,283.368561 297.261871,282.205200 294.394836,282.108459 
	C286.423096,281.839478 278.436127,281.972900 270.455688,282.025848 
	C264.172302,282.067535 263.008057,283.205475 262.095428,289.392303 
	C260.448700,300.555756 258.824066,311.724274 256.968384,322.853699 
	C256.547699,325.376678 255.219879,327.748383 253.994476,330.299744 
	C253.464355,328.915131 253.249374,327.420563 253.232300,325.185486 
	C253.489731,323.577301 253.549271,322.709564 253.608826,321.841858 
	C253.646317,321.424957 253.683792,321.008057 253.999451,320.000031 
	C254.742905,316.891968 255.208191,314.375000 255.673477,311.858063 
	C255.712250,311.441620 255.751038,311.025146 256.036285,310.029968 
	C256.358032,308.572266 256.433319,307.693298 256.508606,306.814301 
	C256.603180,305.472198 256.697723,304.130127 257.044189,302.098053 
	C257.405060,300.220947 257.514069,299.033813 257.623108,297.846680 
	C257.670746,297.430939 257.718384,297.015167 258.059235,296.032104 
	C258.782166,293.590973 259.211884,291.717224 259.641602,289.843445 
	C259.703247,288.494629 259.764923,287.145782 260.086792,285.152466 
	C261.570404,282.701874 262.793823,280.895752 264.017242,279.089661 
	C276.360321,279.055328 288.703400,279.021027 301.599792,279.338470 
	C302.613220,280.130707 303.073273,280.571228 303.533356,281.011719 
	C303.469299,281.795624 303.405243,282.579559 303.140808,283.704285 
z"/>
<path fill="#7D970F" opacity="1.000000" stroke="none" 
	d="
M340.478821,206.991989 
	C343.316895,207.428116 346.096741,208.840729 348.930511,208.958694 
	C356.748962,209.284149 364.589935,209.067963 372.421997,209.066406 
	C382.580750,209.064407 382.580750,209.064575 385.885498,199.306000 
	C387.928162,206.459076 384.784912,210.887558 377.488861,210.933807 
	C367.197815,210.999054 356.905731,210.979858 346.614594,210.917526 
	C343.972992,210.901535 341.086823,211.014786 340.478821,206.991989 
z"/>
<path fill="#4E5E09" opacity="1.000000" stroke="none" 
	d="
M257.117676,369.186096 
	C260.568176,371.366486 263.641174,374.440002 267.323181,376.322418 
	C272.676361,379.059174 278.468506,380.937195 283.890106,383.480652 
	C281.762909,383.448822 279.743408,383.348358 277.890381,382.740540 
	C273.510773,381.303986 269.210297,379.626160 264.877838,378.045898 
	C262.256012,375.212860 259.634186,372.379822 257.117676,369.186096 
z"/>
<path fill="#7D970F" opacity="1.000000" stroke="none" 
	d="
M278.380676,182.033569 
	C278.096741,186.261658 277.020874,190.694580 277.084351,195.111145 
	C277.166992,200.864334 278.153534,206.604523 278.736816,212.749283 
	C278.229248,212.718811 277.460663,212.380707 277.283325,211.846405 
	C273.977875,201.886856 273.664062,191.988037 278.380676,182.033569 
z"/>
<path fill="#506109" opacity="1.000000" stroke="none" 
	d="
M265.070984,378.333923 
	C269.210297,379.626160 273.510773,381.303986 277.890381,382.740540 
	C279.743408,383.348358 281.762909,383.448822 284.158264,383.727234 
	C284.908508,383.586639 285.210876,383.571472 285.747009,384.050598 
	C285.985870,384.949249 285.994659,385.426453 286.003448,385.903656 
	C278.271362,385.808960 271.516815,382.930115 265.070984,378.333923 
z"/>
<path fill="#85A110" opacity="1.000000" stroke="none" 
	d="
M301.402954,384.751038 
	C302.696350,385.193176 303.567108,385.625824 304.768616,386.212402 
	C300.742615,388.771820 296.411285,389.174774 292.423218,385.782104 
	C293.213165,385.162109 293.702637,384.961761 294.192108,384.761414 
	C296.454834,384.754791 298.717560,384.748199 301.402954,384.751038 
z"/>
<path fill="#7F9A0F" opacity="1.000000" stroke="none" 
	d="
M253.315552,336.067902 
	C253.197128,337.127655 253.078705,338.187378 252.656769,339.865479 
	C252.121445,341.470612 251.889603,342.457397 251.374084,343.536682 
	C250.712662,343.752686 250.334930,343.876190 249.957199,343.999664 
	C248.093079,339.223053 250.077774,335.209778 252.810333,331.148376 
	C253.140579,331.017395 253.561462,331.171631 253.450989,331.654053 
	C253.332199,333.446930 253.323883,334.757416 253.315552,336.067902 
z"/>
<path fill="#7D970F" opacity="1.000000" stroke="none" 
	d="
M352.901337,107.341568 
	C348.703674,107.671104 344.238983,107.750107 339.305603,107.720947 
	C343.436035,107.438866 348.035156,107.264961 352.901337,107.341568 
z"/>
<path fill="#70880D" opacity="1.000000" stroke="none" 
	d="
M320.444824,321.993958 
	C319.927124,325.963593 319.152344,330.170685 318.166748,334.691345 
	C318.699921,330.747040 319.443848,326.489258 320.444824,321.993958 
z"/>
<path fill="#7D970F" opacity="1.000000" stroke="none" 
	d="
M282.373718,159.041016 
	C281.881317,162.678513 281.125336,166.527267 280.154388,170.685181 
	C280.662994,167.080322 281.386566,163.166275 282.373718,159.041016 
z"/>
<path fill="#6E850D" opacity="1.000000" stroke="none" 
	d="
M321.787476,299.356476 
	C322.080017,302.770477 322.199677,306.545868 322.101624,310.668579 
	C321.794159,307.249908 321.704346,303.483887 321.787476,299.356476 
z"/>
<path fill="#7D970F" opacity="1.000000" stroke="none" 
	d="
M391.664612,164.983734 
	C392.131500,161.336411 392.874481,157.490448 393.819214,153.323090 
	C393.327545,156.929489 392.634125,160.857300 391.664612,164.983734 
z"/>
<path fill="#7D970F" opacity="1.000000" stroke="none" 
	d="
M343.340698,190.047424 
	C342.732269,193.829544 341.876465,197.840271 340.780762,202.100861 
	C341.391663,198.325821 342.242493,194.300919 343.340698,190.047424 
z"/>
<path fill="#70880D" opacity="1.000000" stroke="none" 
	d="
M296.632446,328.067047 
	C297.128235,324.402954 297.887421,320.510468 298.858704,316.305115 
	C298.345856,319.941071 297.620850,323.889862 296.632446,328.067047 
z"/>
<path fill="#7D970F" opacity="1.000000" stroke="none" 
	d="
M387.667969,187.971512 
	C388.122803,184.656403 388.832306,181.127747 389.752472,177.298126 
	C389.282959,180.584076 388.602814,184.171036 387.667969,187.971512 
z"/>
<path fill="#7D970F" opacity="1.000000" stroke="none" 
	d="
M334.667053,107.736649 
	C331.517639,108.805214 328.045715,109.697716 324.179382,110.542694 
	C327.304810,109.516968 330.824677,108.538780 334.667053,107.736649 
z"/>
<path fill="#7D970F" opacity="1.000000" stroke="none" 
	d="
M367.979126,110.327843 
	C364.991058,109.856720 361.789368,109.137405 358.295135,108.195625 
	C361.256927,108.675316 364.511200,109.377487 367.979126,110.327843 
z"/>
<path fill="#506109" opacity="1.000000" stroke="none" 
	d="
M249.960876,344.454407 
	C250.334930,343.876190 250.712662,343.752686 251.444672,344.051147 
	C251.750641,347.838043 251.702332,351.202972 251.366974,354.477264 
	C250.697662,354.265594 250.315399,354.144592 249.933121,354.023621 
	C249.943604,350.985474 249.954086,347.947327 249.960876,344.454407 
z"/>
<path fill="#758D0E" opacity="1.000000" stroke="none" 
	d="
M322.251526,194.644012 
	C321.927338,191.894775 321.760834,188.789139 321.796265,185.341766 
	C322.135193,188.095886 322.272186,191.191757 322.251526,194.644012 
z"/>
<path fill="#4E5E09" opacity="1.000000" stroke="none" 
	d="
M253.359070,359.974487 
	C254.403152,361.852539 255.447250,363.730621 256.121521,365.893066 
	C254.635284,365.027649 253.518845,363.877808 252.402405,362.727966 
	C252.238342,362.036011 252.074295,361.344055 252.219925,360.306213 
	C252.806091,359.965057 253.082581,359.969757 253.359070,359.974487 
z"/>
<path fill="#7F9A0F" opacity="1.000000" stroke="none" 
	d="
M253.307098,359.594055 
	C253.082581,359.969757 252.806091,359.965057 252.114075,359.966461 
	C250.999451,358.176758 250.300385,356.380890 249.767212,354.304321 
	C250.315399,354.144592 250.697662,354.265594 251.387909,354.740204 
	C252.042267,355.719635 252.388611,356.345459 252.734955,356.971283 
	C252.908356,357.718750 253.081757,358.466187 253.307098,359.594055 
z"/>
<path fill="#4E5E09" opacity="1.000000" stroke="none" 
	d="
M293.965332,384.500671 
	C293.702637,384.961761 293.213165,385.162109 292.332306,385.436859 
	C290.208893,385.673065 288.476837,385.834869 286.374146,385.950195 
	C285.994659,385.426453 285.985870,384.949249 285.969910,384.113037 
	C288.554688,383.916046 291.146606,384.078003 293.965332,384.500671 
z"/>
<path fill="#7D970F" opacity="1.000000" stroke="none" 
	d="
M346.568665,171.101807 
	C346.368317,173.415253 345.882141,175.910751 345.169983,178.700333 
	C345.390259,176.424240 345.836548,173.854034 346.568665,171.101807 
z"/>
<path fill="#7F9A0F" opacity="1.000000" stroke="none" 
	d="
M255.410828,312.063568 
	C255.208191,314.375000 254.742905,316.891968 254.025269,319.687134 
	C254.231339,317.399933 254.689758,314.834503 255.410828,312.063568 
z"/>
<path fill="#7F9A0F" opacity="1.000000" stroke="none" 
	d="
M252.348267,363.110352 
	C253.518845,363.877808 254.635284,365.027649 256.044312,366.229950 
	C256.564667,366.980347 256.792450,367.678314 256.928589,368.735138 
	C253.406357,368.781128 252.438110,366.471161 252.348267,363.110352 
z"/>
<path fill="#7F9A0F" opacity="1.000000" stroke="none" 
	d="
M263.768616,278.946594 
	C262.793823,280.895752 261.570404,282.701874 260.120117,284.748535 
	C259.591003,282.041229 259.554169,279.248962 263.768616,278.946594 
z"/>
<path fill="#7D970F" opacity="1.000000" stroke="none" 
	d="
M286.353302,142.991104 
	C285.862885,145.033218 285.107605,147.253967 284.112183,149.729691 
	C284.610840,147.713028 285.349640,145.441391 286.353302,142.991104 
z"/>
<path fill="#7F9A0F" opacity="1.000000" stroke="none" 
	d="
M259.375305,290.017578 
	C259.211884,291.717224 258.782166,293.590973 258.099274,295.720825 
	C258.267059,294.048492 258.688019,292.120117 259.375305,290.017578 
z"/>
<path fill="#758D0E" opacity="1.000000" stroke="none" 
	d="
M325.593414,202.889771 
	C324.485992,201.319000 323.407013,199.391632 322.350952,197.102386 
	C323.456512,198.671417 324.539185,200.602295 325.593414,202.889771 
z"/>
<path fill="#7D970F" opacity="1.000000" stroke="none" 
	d="
M320.717865,110.824913 
	C319.173645,111.865891 317.353302,112.785255 315.184204,113.710739 
	C316.704193,112.712341 318.572968,111.707817 320.717865,110.824913 
z"/>
<path fill="#7D970F" opacity="1.000000" stroke="none" 
	d="
M375.924805,113.646759 
	C374.189209,113.093750 372.347717,112.230423 370.257874,111.136665 
	C371.945984,111.716309 373.882416,112.526375 375.924805,113.646759 
z"/>
<path fill="#70880D" opacity="1.000000" stroke="none" 
	d="
M300.468506,306.003296 
	C300.616882,304.329224 301.027130,302.464569 301.635742,300.312683 
	C301.466217,301.954529 301.098297,303.883606 300.468506,306.003296 
z"/>
<path fill="#7D970F" opacity="1.000000" stroke="none" 
	d="
M386.715179,121.901833 
	C385.495209,121.114349 384.244141,119.979309 382.876587,118.543182 
	C384.068085,119.346161 385.376068,120.450218 386.715179,121.901833 
z"/>
<path fill="#7D970F" opacity="1.000000" stroke="none" 
	d="
M394.120667,136.738724 
	C393.326508,135.561813 392.694489,134.119690 392.038940,132.333389 
	C392.771179,133.483978 393.526978,134.978729 394.120667,136.738724 
z"/>
<path fill="#7D970F" opacity="1.000000" stroke="none" 
	d="
M390.469971,127.066025 
	C389.343842,126.140884 388.258270,124.866730 387.131958,123.264450 
	C388.230988,124.196556 389.370789,125.456787 390.469971,127.066025 
z"/>
<path fill="#7D970F" opacity="1.000000" stroke="none" 
	d="
M310.767639,114.942841 
	C309.869934,115.994286 308.728638,116.919159 307.262390,117.876862 
	C308.132965,116.878548 309.328522,115.847412 310.767639,114.942841 
z"/>
<path fill="#70880D" opacity="1.000000" stroke="none" 
	d="
M317.301208,338.887146 
	C316.984741,340.368713 316.439301,342.083527 315.622803,343.984314 
	C315.925232,342.487000 316.498749,340.803711 317.301208,338.887146 
z"/>
<path fill="#70880D" opacity="1.000000" stroke="none" 
	d="
M295.354828,334.923645 
	C295.218445,333.944366 295.320435,332.778351 295.616669,331.321259 
	C295.738312,332.265747 295.665741,333.501312 295.354828,334.923645 
z"/>
<path fill="#7F9A0F" opacity="1.000000" stroke="none" 
	d="
M257.395905,298.026306 
	C257.514069,299.033813 257.405060,300.220947 257.067963,301.694214 
	C256.949493,300.722168 257.059113,299.464050 257.395905,298.026306 
z"/>
<path fill="#7D970F" opacity="1.000000" stroke="none" 
	d="
M344.447754,181.031403 
	C344.582886,182.030960 344.487213,183.210724 344.200867,184.695618 
	C344.079102,183.737701 344.148010,182.474655 344.447754,181.031403 
z"/>
<path fill="#7D970F" opacity="1.000000" stroke="none" 
	d="
M279.942871,219.237396 
	C280.720245,220.094574 281.357391,221.198120 282.031006,222.624741 
	C281.312500,221.793137 280.557556,220.638443 279.942871,219.237396 
z"/>
<path fill="#7F9A0F" opacity="1.000000" stroke="none" 
	d="
M303.710114,280.891663 
	C303.073273,280.571228 302.613220,280.130707 302.065857,279.377563 
	C302.614685,279.633789 303.250763,280.202698 303.710114,280.891663 
z"/>
<path fill="#7D970F" opacity="1.000000" stroke="none" 
	d="
M289.597717,136.044800 
	C289.264160,136.970139 288.616882,138.001968 287.704163,139.194855 
	C288.053802,138.287704 288.668884,137.219482 289.597717,136.044800 
z"/>
<path fill="#7D970F" opacity="1.000000" stroke="none" 
	d="
M283.500000,227.941742 
	C284.303375,228.545074 285.070648,229.488281 285.875916,230.745895 
	C285.097260,230.134079 284.280579,229.207825 283.500000,227.941742 
z"/>
<path fill="#7D970F" opacity="1.000000" stroke="none" 
	d="
M291.320312,242.049561 
	C292.150879,242.617142 292.985352,243.521286 293.867554,244.742615 
	C293.051636,244.168579 292.187927,243.277344 291.320312,242.049561 
z"/>
<path fill="#7F9A0F" opacity="1.000000" stroke="none" 
	d="
M256.311218,306.978058 
	C256.433319,307.693298 256.358032,308.572266 256.074219,309.718567 
	C255.948395,309.037842 256.031128,308.089844 256.311218,306.978058 
z"/>
<path fill="#7D970F" opacity="1.000000" stroke="none" 
	d="
M386.644287,196.026428 
	C386.498779,195.316711 386.557739,194.442291 386.793152,193.283066 
	C386.929352,193.952744 386.889038,194.907227 386.644287,196.026428 
z"/>
<path fill="#70880D" opacity="1.000000" stroke="none" 
	d="
M299.698181,311.159851 
	C299.563080,310.432556 299.617371,309.515472 299.850281,308.297424 
	C299.981781,308.987671 299.934662,309.978851 299.698181,311.159851 
z"/>
<path fill="#7D970F" opacity="1.000000" stroke="none" 
	d="
M279.310547,174.967422 
	C279.468658,175.672211 279.429901,176.547897 279.222534,177.713135 
	C279.073853,177.047897 279.093781,176.093124 279.310547,174.967422 
z"/>
<path fill="#7D970F" opacity="1.000000" stroke="none" 
	d="
M390.626404,173.020660 
	C390.474640,172.313568 390.527039,171.441559 390.749756,170.282883 
	C390.890259,170.949402 390.860443,171.902573 390.626404,173.020660 
z"/>
<path fill="#7D970F" opacity="1.000000" stroke="none" 
	d="
M283.364990,151.974243 
	C283.498322,152.685089 283.427246,153.559464 283.176025,154.716797 
	C283.050842,154.045761 283.105743,153.091766 283.364990,151.974243 
z"/>
<path fill="#7F9A0F" opacity="1.000000" stroke="none" 
	d="
M253.398361,321.999878 
	C253.549271,322.709564 253.489731,323.577301 253.250458,324.725586 
	C253.109802,324.056763 253.148865,323.107361 253.398361,321.999878 
z"/>
<path fill="#70880D" opacity="1.000000" stroke="none" 
	d="
M314.698456,345.082214 
	C314.584229,345.599792 314.200623,346.237854 313.576538,347.024780 
	C313.700409,346.516663 314.064758,345.859650 314.698456,345.082214 
z"/>
<path fill="#7D970F" opacity="1.000000" stroke="none" 
	d="
M294.490295,246.940948 
	C294.964325,247.216492 295.438568,247.802765 295.991150,248.665771 
	C295.543152,248.378891 295.016846,247.815277 294.490295,246.940948 
z"/>
<path fill="#6E850D" opacity="1.000000" stroke="none" 
	d="
M320.334198,293.143097 
	C320.713898,293.496490 321.141083,294.135529 321.541962,295.082092 
	C321.137665,294.735992 320.759644,294.082367 320.334198,293.143097 
z"/>
<path fill="#7D970F" opacity="1.000000" stroke="none" 
	d="
M278.958557,215.181885 
	C279.283142,215.527924 279.492523,216.061691 279.672302,216.887024 
	C279.376251,216.575592 279.109802,215.972610 278.958557,215.181885 
z"/>
<path fill="#7D970F" opacity="1.000000" stroke="none" 
	d="
M291.726013,132.131149 
	C291.645081,132.671890 291.287628,133.341827 290.702759,134.188995 
	C290.800079,133.664276 291.124786,132.962311 291.726013,132.131149 
z"/>
<path fill="#4E5E09" opacity="1.000000" stroke="none" 
	d="
M252.961029,356.631042 
	C252.388611,356.345459 252.042267,355.719635 251.674957,354.830872 
	C251.702332,351.202972 251.750641,347.838043 251.728363,343.958618 
	C251.889603,342.457397 252.121445,341.470612 252.572723,340.256714 
	C252.923813,345.449982 253.055450,350.870392 252.961029,356.631042 
z"/>
<path fill="#4E5E09" opacity="1.000000" stroke="none" 
	d="
M253.553070,335.916443 
	C253.323883,334.757416 253.332199,333.446930 253.566818,331.845886 
	C253.792267,332.958557 253.791428,334.361755 253.553070,335.916443 
z"/>
<path fill="#010100" opacity="1.000000" stroke="none" 
	d="
M240.089203,251.103363 
	C225.348190,251.257095 210.607178,251.410843 195.125061,251.465225 
	C193.323257,252.133774 191.545441,252.733627 191.319656,253.697159 
	C189.970779,259.453400 188.935303,265.285492 187.887436,271.108856 
	C187.363602,274.019958 187.158112,276.989868 186.598663,279.892731 
	C184.446518,291.059845 182.061951,302.184052 180.048416,313.375427 
	C178.269958,323.260193 176.984924,333.232971 175.272736,343.130676 
	C173.276733,354.668976 171.197067,366.197937 168.809280,377.659180 
	C168.322891,379.993805 166.306305,382.009644 164.995117,384.172424 
	C164.248672,384.191040 163.502213,384.209656 162.041702,383.958099 
	C153.216644,383.852844 145.105637,384.017822 136.994644,384.182800 
	C135.643402,384.128204 134.292145,384.073639 132.528870,383.453369 
	C131.911591,380.806244 131.706345,378.724854 131.501099,376.643463 
	C131.536316,376.278839 131.571533,375.914185 131.928070,375.015869 
	C132.657227,373.400238 133.231720,372.350555 133.448013,371.231567 
	C136.880814,353.471863 140.461823,335.737549 143.611481,317.927155 
	C146.877625,299.458160 149.620377,280.897217 152.774918,262.407654 
	C154.839569,250.306259 157.254883,238.264999 159.457458,226.186630 
	C160.082886,222.756897 160.403976,219.270874 161.053238,215.846420 
	C162.905838,206.075089 165.030777,196.352371 166.720566,186.553970 
	C168.638382,175.433334 170.042953,164.224197 171.960571,153.103516 
	C174.047058,141.003510 176.610352,128.985153 178.649872,116.877991 
	C179.232254,113.420815 180.554703,111.850555 184.049210,111.855392 
	C210.207825,111.891548 236.366547,111.886391 262.525208,111.858452 
	C266.433990,111.854271 267.452423,113.647949 266.547760,117.281235 
	C265.469208,121.612869 264.704163,126.021820 263.760742,130.388077 
	C262.756775,135.034332 261.702942,139.669830 260.670898,144.310028 
	C245.415466,144.457718 230.160049,144.605408 214.168579,144.658203 
	C211.693588,147.726822 209.220810,150.707718 208.378052,154.094254 
	C206.908783,159.998322 206.564087,166.172897 205.532928,172.197281 
	C203.330902,185.062286 200.794724,197.873322 198.797714,210.768738 
	C197.906143,216.525879 199.524612,217.990112 205.281067,218.025269 
	C216.432327,218.093353 227.584412,218.016724 238.735855,218.067566 
	C244.652573,218.094543 245.694809,218.906845 244.857544,224.792679 
	C243.603180,233.610565 241.710449,242.337662 240.089203,251.103363 
z"/>
<path fill="#313B06" opacity="1.000000" stroke="none" 
	d="
M261.030609,144.376923 
	C261.702942,139.669830 262.756775,135.034332 263.760742,130.388077 
	C264.704163,126.021820 265.469208,121.612869 266.547760,117.281235 
	C267.452423,113.647949 266.433990,111.854271 262.525208,111.858452 
	C236.366547,111.886391 210.207825,111.891548 184.049210,111.855392 
	C180.554703,111.850555 179.232254,113.420815 178.649872,116.877991 
	C176.610352,128.985153 174.047058,141.003510 171.960571,153.103516 
	C170.042953,164.224197 168.638382,175.433334 166.720566,186.553970 
	C165.030777,196.352371 162.905838,206.075089 161.053238,215.846420 
	C160.403976,219.270874 160.082886,222.756897 159.457458,226.186630 
	C157.254883,238.264999 154.839569,250.306259 152.774918,262.407654 
	C149.620377,280.897217 146.877625,299.458160 143.611481,317.927155 
	C140.461823,335.737549 136.880814,353.471863 133.448013,371.231567 
	C133.231720,372.350555 132.657227,373.400238 131.975571,374.745178 
	C131.683228,373.375641 131.408295,371.698334 131.684387,370.117218 
	C136.267090,343.872650 140.952271,317.645966 145.543884,291.402954 
	C148.757950,273.033325 151.828110,254.638580 155.031387,236.267044 
	C157.920380,219.698044 160.901398,203.145081 163.844727,186.585541 
	C167.166565,167.896439 170.475037,149.204926 173.825424,130.520935 
	C174.824783,124.947823 175.946808,119.396713 177.010117,113.835037 
	C177.631073,110.587090 179.488480,108.961922 182.898071,108.965805 
	C209.729767,108.996368 236.561493,108.986382 263.393219,108.967628 
	C267.405060,108.964828 269.467987,110.950974 268.861694,114.872261 
	C267.488220,123.755394 265.921570,132.612061 264.198120,141.433502 
	C263.974915,142.576187 262.360382,143.447067 261.030609,144.376923 
z"/>
<path fill="#313B06" opacity="1.000000" stroke="none" 
	d="
M240.449799,251.055573 
	C241.710449,242.337662 243.603180,233.610565 244.857544,224.792679 
	C245.694809,218.906845 244.652573,218.094543 238.735855,218.067566 
	C227.584412,218.016724 216.432327,218.093353 205.281067,218.025269 
	C199.524612,217.990112 197.906143,216.525879 198.797714,210.768738 
	C200.794724,197.873322 203.330902,185.062286 205.532928,172.197281 
	C206.564087,166.172897 206.908783,159.998322 208.378052,154.094254 
	C209.220810,150.707718 211.693588,147.726822 213.698151,144.679993 
	C212.083130,152.323883 209.882919,159.788452 208.392487,167.392151 
	C205.772202,180.760040 203.644089,194.223618 201.194382,207.626007 
	C199.914352,214.629120 200.845078,215.911392 208.052414,215.928848 
	C219.196503,215.955856 230.340927,215.886673 241.484833,215.937973 
	C248.354095,215.969574 249.293167,217.458267 247.867737,224.057938 
	C246.360062,231.038315 245.447693,238.147400 243.934174,245.126297 
	C243.481308,247.214401 241.883606,249.054199 240.449799,251.055573 
z"/>
<path fill="#313B06" opacity="1.000000" stroke="none" 
	d="
M165.288300,384.321533 
	C166.306305,382.009644 168.322891,379.993805 168.809280,377.659180 
	C171.197067,366.197937 173.276733,354.668976 175.272736,343.130676 
	C176.984924,333.232971 178.269958,323.260193 180.048416,313.375427 
	C182.061951,302.184052 184.446518,291.059845 186.598663,279.892731 
	C187.158112,276.989868 187.363602,274.019958 187.887436,271.108856 
	C188.935303,265.285492 189.970779,259.453400 191.319656,253.697159 
	C191.545441,252.733627 193.323257,252.133774 194.652588,251.497498 
	C192.986145,260.013184 190.742249,268.340149 189.179611,276.793091 
	C185.825180,294.938599 182.875900,313.158600 179.659012,331.330078 
	C176.818665,347.374573 173.869141,363.399994 170.896072,379.420532 
	C170.368484,382.263550 169.635284,385.195770 165.288300,384.321533 
z"/>
<path fill="#313B06" opacity="1.000000" stroke="none" 
	d="
M137.369293,384.346619 
	C145.105637,384.017822 153.216644,383.852844 161.669250,383.928040 
	C153.921906,384.282288 145.832932,384.396393 137.369293,384.346619 
z"/>
<path fill="#313B06" opacity="1.000000" stroke="none" 
	d="
M131.241699,376.852478 
	C131.706345,378.724854 131.911591,380.806244 132.141281,383.327026 
	C127.142578,382.348419 130.332199,379.480865 131.241699,376.852478 
z"/>
</svg>