<svg version="1.1" id="Layer_1" xmlns="http://www.w3.org/2000/svg" xmlns:xlink="http://www.w3.org/1999/xlink" x="0px" y="0px"
	 width="100%" viewBox="0 0 90 90" enable-background="new 0 0 90 90" xml:space="preserve">
<path fill="#FDFEFE" opacity="1.000000" stroke="none" 
	d="
M91.000000,27.999992 
	C91.000000,49.333324 91.000000,70.166649 91.000000,90.999985 
	C61.000019,90.999985 31.000038,90.999985 1.000044,90.999992 
	C1.000029,61.000031 1.000029,31.000061 1.000015,1.000068 
	C30.999960,1.000045 60.999920,1.000045 90.999939,1.000023 
	C91.000000,9.833329 91.000000,18.666658 91.000000,27.999992 
M17.537510,82.914986 
	C17.701626,82.615578 17.865742,82.316170 18.750887,81.929016 
	C19.716591,81.871658 20.682295,81.814301 22.467682,81.839859 
	C23.286293,81.905334 24.104906,81.970818 25.750093,82.142090 
	C27.521931,81.770821 29.293766,81.399551 31.844036,80.974770 
	C32.623569,80.933708 33.403099,80.892654 34.576965,80.976746 
	C34.576965,80.976746 34.988781,81.016281 35.000458,81.000305 
	C35.000458,81.000305 34.984909,81.011047 35.137295,81.637413 
	C36.121090,81.871567 37.104885,82.105721 38.863831,82.710091 
	C40.548702,82.597977 42.233578,82.485863 44.507481,82.601578 
	C45.225883,82.221596 45.944286,81.841621 47.134186,81.405319 
	C47.420654,81.271355 47.705811,81.134651 48.721565,81.035027 
	C49.449554,81.044579 50.177544,81.054123 51.061466,81.088478 
	C51.061466,81.088478 51.118496,80.941246 51.257870,81.736084 
	C55.335793,83.664124 59.339760,84.296532 63.797794,80.997849 
	C64.966927,80.127121 66.136055,79.256393 67.830299,78.082626 
	C67.961411,77.337631 68.092522,76.592636 68.546761,75.176109 
	C68.640976,74.440170 68.735184,73.704239 69.195686,72.682129 
	C69.167473,72.114731 69.139259,71.547325 69.292732,70.255760 
	C69.262924,69.514656 69.233116,68.773560 69.537910,67.478416 
	C69.649796,65.304001 69.761681,63.129589 70.221581,60.555149 
	C70.348740,60.227371 70.475891,59.899590 71.059883,59.162891 
	C71.132301,58.391926 71.204720,57.620964 71.591927,56.088261 
	C72.612335,51.818356 71.726959,48.243614 66.927773,47.520947 
	C63.619736,47.022820 60.139523,47.668087 56.425800,47.585358 
	C56.425800,47.585358 56.047882,47.559917 55.795086,47.389816 
	C55.484985,47.285095 55.204224,47.341602 54.568253,47.583622 
	C54.568253,47.583622 54.255863,47.809185 53.428196,47.502602 
	C51.468945,47.790802 49.509693,48.079002 46.848125,47.883003 
	C40.025394,44.553947 33.003975,45.902779 25.207577,47.077507 
	C23.557894,47.742981 21.908213,48.408455 19.995426,49.854099 
	C18.457363,60.204826 16.919300,70.555557 15.154344,81.553925 
	C15.769421,81.990730 16.384499,82.427544 17.537510,82.914986 
M33.597919,9.171526 
	C33.554817,9.355319 33.511719,9.539111 33.013592,10.211794 
	C32.559227,11.451010 32.104862,12.690227 31.125042,14.018344 
	C31.050865,14.672517 30.976686,15.326690 30.861700,16.636875 
	C30.765167,17.061863 30.668634,17.486851 29.857508,17.937374 
	C28.905758,17.956997 27.954008,17.976618 26.892204,17.094812 
	C26.892204,14.350084 26.892204,11.605357 26.892204,8.966030 
	C16.801350,7.086583 16.480328,7.304562 15.004807,16.506994 
	C14.875003,17.316549 14.683814,18.116262 13.946074,19.076790 
	C13.957632,20.050243 13.969192,21.023697 14.050775,22.826559 
	C13.538816,25.850157 13.026859,28.873753 11.948359,32.063171 
	C11.942734,33.037693 11.937107,34.012218 11.983667,35.645462 
	C11.880081,36.071171 11.776495,36.496880 11.003826,37.139473 
	C11.245437,39.131271 11.487047,41.123066 12.341697,43.165569 
	C12.532865,43.239716 12.724033,43.313866 13.111276,44.016064 
	C14.397225,43.657612 15.683176,43.299160 17.192955,42.206158 
	C17.830368,39.480503 18.467781,36.754848 19.739826,34.533928 
	C19.827152,36.349777 19.596758,38.259403 20.096769,39.953445 
	C20.541050,41.458675 21.699095,43.765057 22.714256,43.859081 
	C24.344683,44.010101 26.117083,42.628342 27.919979,41.159065 
	C28.312330,39.780838 28.704681,38.402611 29.737509,37.055805 
	C30.523756,37.378132 31.310003,37.700459 31.925930,38.817474 
	C31.882854,39.900002 31.839777,40.982533 31.318867,42.516865 
	C32.743420,43.332226 34.313656,44.988476 35.559563,44.772629 
	C37.604038,44.418438 39.437992,42.849056 41.844090,42.017651 
	C42.219986,42.392242 42.595882,42.766834 43.050751,43.772949 
	C44.029961,43.860477 45.009167,43.948009 46.808266,43.896660 
	C48.192608,43.880592 49.576954,43.864525 51.234329,44.358212 
	C51.842651,43.955215 52.450977,43.552219 53.428238,42.703026 
	C53.942184,42.446342 54.456131,42.189659 55.382847,42.504219 
	C56.297848,42.639614 57.212849,42.775009 58.022942,42.963081 
	C58.022942,42.963081 58.093079,42.868946 58.135368,43.685375 
	C61.849152,45.514683 65.520500,46.279613 69.678459,42.916416 
	C73.484634,41.796715 75.184662,39.075417 75.675179,35.294563 
	C76.077110,32.196579 76.683014,29.125055 77.784439,25.951855 
	C77.758690,25.276386 77.732933,24.600916 77.664558,23.001707 
	C77.990471,20.534588 78.313736,18.067116 78.642921,15.600432 
	C79.127235,11.971324 78.159851,9.336801 73.409309,8.355678 
	C69.638191,8.920497 65.867081,9.485315 61.477856,9.788140 
	C60.853458,9.583906 60.229061,9.379671 59.243793,9.093343 
	C59.243793,9.093343 59.049538,8.778329 58.902439,8.075515 
	C55.099476,5.487670 51.401348,4.860877 47.506413,9.105819 
	C46.755531,9.810349 46.004654,10.514878 44.548466,11.098111 
	C44.075424,11.046232 43.602379,10.994353 43.074043,10.312940 
	C43.030247,9.894165 42.986454,9.475390 42.903133,8.283078 
	C39.893810,8.414617 36.884491,8.546155 33.597919,9.171526 
z"/>
<path fill="#2E534B" opacity="1.000000" stroke="none" 
	d="
M12.915203,43.388012 
	C12.724033,43.313866 12.532865,43.239716 12.010962,42.694237 
	C11.677789,40.456131 11.675349,38.689358 11.672909,36.922588 
	C11.776495,36.496880 11.880081,36.071171 12.181966,35.070755 
	C12.425143,33.629814 12.470022,32.763580 12.514902,31.897350 
	C13.026859,28.873753 13.538816,25.850157 14.240088,22.166824 
	C14.459979,20.644907 14.490558,19.782726 14.521137,18.920546 
	C14.683814,18.116262 14.875003,17.316549 15.004807,16.506994 
	C16.480328,7.304562 16.801350,7.086583 26.892204,8.966030 
	C26.892204,11.605357 26.892204,14.350084 26.804960,17.923840 
	C26.821424,21.822466 26.925135,24.892067 26.879116,28.250158 
	C26.755838,29.223291 26.782286,29.907932 26.808735,30.592573 
	C27.187527,29.699165 27.566317,28.805758 27.975269,27.527828 
	C28.860989,24.066151 29.716547,20.988995 30.572105,17.911839 
	C30.668634,17.486851 30.765167,17.061863 31.130703,16.138456 
	C31.483303,15.069839 31.566900,14.499640 31.650499,13.929442 
	C32.104862,12.690227 32.559227,11.451010 33.544548,9.985943 
	C34.385628,9.515991 34.695755,9.271890 35.443214,8.956633 
	C38.234581,8.942523 40.588619,8.999570 42.942657,9.056616 
	C42.986454,9.475390 43.030247,9.894165 42.894638,10.977427 
	C41.930264,16.014942 41.011883,20.369299 40.396641,24.766077 
	C39.739250,29.464102 39.367878,34.202148 38.556427,39.116699 
	C37.376205,43.231064 35.219097,44.128265 31.796703,42.065060 
	C31.839777,40.982533 31.882854,39.900002 32.360466,38.234531 
	C32.795002,35.597332 32.795002,33.543076 32.795002,31.488819 
	C32.378002,31.335114 31.961004,31.181406 31.544006,31.027700 
	C30.728348,33.026596 29.912689,35.025490 29.097031,37.024384 
	C28.704681,38.402611 28.312330,39.780838 27.446274,41.604687 
	C25.516645,42.050308 24.060724,42.050308 21.837498,42.050308 
	C21.837498,34.479862 21.837498,27.234653 21.837498,19.989443 
	C21.193874,19.964315 20.550253,19.939188 19.906630,19.914062 
	C19.639484,24.619106 19.372339,29.324150 19.105194,34.029194 
	C18.467781,36.754848 17.830368,39.480503 16.668556,42.557556 
	C15.067841,43.068638 13.991522,43.228325 12.915203,43.388012 
z"/>
<path fill="#2F5550" opacity="1.000000" stroke="none" 
	d="
M47.550442,48.367199 
	C49.509693,48.079002 51.468945,47.790802 53.762882,48.098251 
	C52.061596,59.461002 50.025627,70.228104 47.989655,80.995209 
	C47.705811,81.134651 47.420654,81.271355 46.579689,81.307358 
	C45.322945,81.597511 44.620697,81.985626 43.918449,82.373741 
	C42.233578,82.485863 40.548702,82.597977 38.359356,82.240494 
	C36.898224,81.517609 35.941566,81.264328 34.984909,81.011047 
	C34.984909,81.011047 35.000458,81.000305 35.015770,80.579552 
	C35.021355,78.386475 35.383606,76.505959 34.907558,74.869270 
	C34.315117,72.832367 33.030552,70.996780 32.039097,68.699516 
	C33.041641,66.832344 34.049973,65.339920 35.414192,63.673656 
	C36.212059,59.682049 36.654037,55.864277 37.398949,51.881989 
	C37.843945,50.815834 37.986012,49.914188 38.308895,48.909157 
	C38.723644,48.642292 38.898411,48.430080 39.448219,48.115067 
	C41.459698,48.060997 43.036961,48.060997 45.030910,48.060997 
	C44.684509,51.122833 44.411118,53.539341 43.995255,56.176300 
	C43.848000,56.915081 43.843224,57.433407 43.696186,58.332615 
	C42.738617,64.467041 41.923306,70.220589 41.046486,76.281631 
	C41.694565,76.411484 42.404160,76.233856 43.304863,75.718384 
	C44.356415,69.579735 45.216854,63.778934 46.216896,57.698341 
	C46.354576,57.006634 46.352657,56.594719 46.501190,55.819157 
	C46.951237,53.092739 47.250839,50.729969 47.550442,48.367199 
z"/>
<path fill="#2C5652" opacity="1.000000" stroke="none" 
	d="
M56.736259,47.802349 
	C60.139523,47.668087 63.619736,47.022820 66.927773,47.520947 
	C71.726959,48.243614 72.612335,51.818356 71.160851,56.638245 
	C70.687531,57.982758 70.645287,58.777287 70.603043,59.571812 
	C70.475891,59.899590 70.348740,60.227371 69.694229,60.790813 
	C68.004929,61.745560 66.842995,62.464642 65.326126,63.403374 
	C66.922913,65.309830 68.063110,66.671143 69.203308,68.032455 
	C69.233116,68.773560 69.262924,69.514656 68.967941,70.738312 
	C68.705238,71.803345 68.767326,72.385826 68.829407,72.968300 
	C68.735184,73.704239 68.640976,74.440170 68.125465,75.663971 
	C67.571175,76.896446 67.438179,77.641060 67.305191,78.385666 
	C66.136055,79.256393 64.966927,80.127121 62.993679,81.001663 
	C58.499207,80.984077 54.808853,80.962662 51.118496,80.941246 
	C51.118496,80.941246 51.061466,81.088478 51.086777,80.676735 
	C52.986813,69.444115 54.861538,58.623230 56.736259,47.802349 
M59.441345,71.012711 
	C59.441345,72.982605 59.441345,74.952507 59.441345,77.407974 
	C63.006382,74.229095 63.676376,69.661430 61.084255,65.221100 
	C60.460571,67.326965 60.036427,68.759102 59.441345,71.012711 
z"/>
<path fill="#30584F" opacity="1.000000" stroke="none" 
	d="
M42.971779,43.141426 
	C42.595882,42.766834 42.219986,42.392242 41.587379,41.555859 
	C41.126709,40.426430 40.922752,39.758793 40.830170,38.680374 
	C42.378956,29.252865 43.816364,20.236135 45.253773,11.219408 
	C46.004654,10.514878 46.755531,9.810349 48.123520,8.894998 
	C52.176933,8.715561 55.613235,8.746944 59.049538,8.778329 
	C59.049538,8.778329 59.243793,9.093343 59.488403,9.562550 
	C59.891129,12.339696 60.049236,14.647634 60.112312,17.362900 
	C58.962078,24.822962 57.906872,31.875698 56.634270,39.134834 
	C55.934612,40.205151 55.452347,41.069065 54.970081,41.932976 
	C54.456131,42.189659 53.942184,42.446342 52.949444,42.865120 
	C51.967529,43.300961 51.464413,43.574703 50.961296,43.848450 
	C49.576954,43.864525 48.192608,43.880592 46.168953,43.731979 
	C44.677017,43.425339 43.824398,43.283382 42.971779,43.141426 
M47.099392,34.481770 
	C47.477852,35.971107 47.856316,37.460442 48.234776,38.949780 
	C48.825256,38.895386 49.415741,38.840996 50.006226,38.786602 
	C51.112072,30.571901 52.217918,22.357203 53.323765,14.142504 
	C52.737347,14.059981 52.150932,13.977459 51.564514,13.894937 
	C50.092651,20.485085 48.620789,27.075233 47.099392,34.481770 
z"/>
<path fill="#2C5750" opacity="1.000000" stroke="none" 
	d="
M74.037025,8.855200 
	C78.159851,9.336801 79.127235,11.971324 78.642921,15.600432 
	C78.313736,18.067116 77.990471,20.534588 77.468277,23.663994 
	C77.247498,24.898123 77.223000,25.469963 77.198502,26.041803 
	C76.683014,29.125055 76.077110,32.196579 75.675179,35.294563 
	C75.184662,39.075417 73.484634,41.796715 68.910339,42.979763 
	C64.792511,42.985054 61.442795,42.926998 58.093079,42.868946 
	C58.093079,42.868946 58.022942,42.963081 58.133564,42.549500 
	C58.178577,41.094555 58.112968,40.053188 58.395790,38.787495 
	C59.817047,31.372774 60.889877,24.182384 62.007309,16.622040 
	C62.068214,15.510214 62.084518,14.768343 62.458218,13.923162 
	C63.914898,10.178213 66.544212,9.530696 69.955353,9.856576 
	C71.272003,9.982362 72.673943,9.215417 74.037025,8.855200 
M70.350311,24.943489 
	C70.847298,21.107246 71.344276,17.271002 71.841263,13.434759 
	C71.112152,13.339447 70.383041,13.244134 69.653931,13.148822 
	C68.093246,21.285545 66.532562,29.422268 64.971870,37.558990 
	C70.492714,35.019241 69.218864,29.990122 70.350311,24.943489 
z"/>
<path fill="#294E4A" opacity="1.000000" stroke="none" 
	d="
M35.058300,63.847488 
	C34.049973,65.339920 33.041641,66.832344 32.030624,69.118721 
	C32.005459,71.320457 31.982988,72.728249 31.968203,74.331207 
	C31.975887,74.526382 31.976879,74.917030 31.712605,75.164154 
	C31.296133,76.601448 31.143934,77.791611 30.948986,79.324783 
	C30.959360,80.121284 31.012482,80.574783 31.065603,81.028282 
	C29.293766,81.399551 27.521931,81.770821 25.360943,81.658974 
	C25.419172,75.971535 25.866552,70.767204 26.313932,65.562881 
	C25.638145,65.470421 24.962357,65.377960 24.286570,65.285500 
	C23.407047,70.775978 22.527523,76.266464 21.647999,81.756943 
	C20.682295,81.814301 19.716591,81.871658 18.162117,81.908081 
	C17.573345,81.887146 17.109850,81.785309 16.953951,81.582382 
	C16.325779,81.221733 15.853506,81.064011 15.381235,80.906281 
	C16.919300,70.555557 18.457363,60.204826 20.565865,49.446632 
	C22.932785,48.897533 24.729267,48.755901 26.560581,49.098698 
	C26.271851,52.098660 25.948288,54.614193 25.389839,57.373833 
	C25.714108,58.693817 26.273264,59.769695 26.832420,60.845570 
	C27.372957,59.617050 27.913494,58.388527 28.428955,56.814510 
	C28.387396,56.007412 28.370911,55.545811 28.695400,54.950066 
	C29.345751,52.858097 29.655130,50.900280 30.152901,48.603481 
	C33.506287,47.583740 36.199818,47.642822 36.054428,52.379990 
	C35.646336,56.470570 35.352318,60.159031 35.058300,63.847488 
z"/>
<path fill="#D9E7E6" opacity="1.000000" stroke="none" 
	d="
M28.354427,55.084209 
	C28.370911,55.545811 28.387396,56.007412 27.957218,56.793907 
	C26.881948,57.122440 26.253338,57.126083 25.624729,57.129726 
	C25.948288,54.614193 26.271851,52.098660 26.528229,48.814957 
	C26.305151,47.696926 26.149254,47.347065 25.993359,46.997208 
	C33.003975,45.902779 40.025394,44.553947 47.199284,48.125099 
	C47.250839,50.729969 46.951237,53.092739 45.948559,55.755440 
	C44.876228,56.022198 44.506973,55.989025 44.137726,55.955853 
	C44.411118,53.539341 44.684509,51.122833 45.030910,48.060997 
	C43.036961,48.060997 41.459698,48.060997 39.182495,48.082237 
	C38.364399,48.406502 38.246239,48.709522 38.128082,49.012543 
	C37.986012,49.914188 37.843945,50.815834 37.167755,51.855614 
	C36.633629,51.993744 36.168507,51.977871 36.168507,51.977871 
	C36.199818,47.642822 33.506287,47.583740 29.832592,48.803879 
	C29.000736,51.256905 28.677582,53.170555 28.354427,55.084209 
z"/>
<path fill="#A9C5BF" opacity="1.000000" stroke="none" 
	d="
M44.901119,11.158760 
	C43.816364,20.236135 42.378956,29.252865 40.520947,38.671371 
	C39.690784,39.023010 39.281219,38.972866 38.871655,38.922726 
	C39.367878,34.202148 39.739250,29.464102 40.396641,24.766077 
	C41.011883,20.369299 41.930264,16.014942 42.922283,11.292194 
	C43.602379,10.994353 44.075424,11.046232 44.901119,11.158760 
z"/>
<path fill="#A9C5C4" opacity="1.000000" stroke="none" 
	d="
M56.581032,47.693855 
	C54.861538,58.623230 52.986813,69.444115 51.008812,80.664330 
	C50.177544,81.054123 49.449554,81.044579 48.355610,81.015121 
	C50.025627,70.228104 52.061596,59.461002 54.176716,48.251541 
	C54.255863,47.809185 54.568253,47.583622 55.034279,47.660995 
	C55.682827,47.678886 55.865353,47.619400 56.047882,47.559917 
	C56.047882,47.559917 56.425800,47.585358 56.581032,47.693855 
z"/>
<path fill="#809B95" opacity="1.000000" stroke="none" 
	d="
M19.422510,34.281563 
	C19.372339,29.324150 19.639484,24.619106 19.906630,19.914062 
	C20.550253,19.939188 21.193874,19.964315 21.837498,19.989443 
	C21.837498,27.234653 21.837498,34.479862 21.837498,42.050308 
	C24.060724,42.050308 25.516645,42.050308 27.401028,41.972298 
	C26.117083,42.628342 24.344683,44.010101 22.714256,43.859081 
	C21.699095,43.765057 20.541050,41.458675 20.096769,39.953445 
	C19.596758,38.259403 19.827152,36.349777 19.422510,34.281563 
z"/>
<path fill="#BFD6D3" opacity="1.000000" stroke="none" 
	d="
M22.057840,81.798401 
	C22.527523,76.266464 23.407047,70.775978 24.286570,65.285500 
	C24.962357,65.377960 25.638145,65.470421 26.313932,65.562881 
	C25.866552,70.767204 25.419172,75.971535 24.947655,81.606079 
	C24.104906,81.970818 23.286293,81.905334 22.057840,81.798401 
z"/>
<path fill="#4F706B" opacity="1.000000" stroke="none" 
	d="
M31.960518,74.136040 
	C31.982988,72.728249 32.005459,71.320457 32.036407,69.493462 
	C33.030552,70.996780 34.315117,72.832367 34.907558,74.869270 
	C35.383606,76.505959 35.021355,78.386475 35.009930,80.587540 
	C34.988781,81.016281 34.576965,80.976746 34.238651,80.604393 
	C32.930805,79.815285 31.961271,79.398529 30.991737,78.981781 
	C31.143934,77.791611 31.296133,76.601448 31.878502,75.109261 
	C32.192623,74.583511 32.076569,74.359772 31.960518,74.136040 
z"/>
<path fill="#D2E2DF" opacity="1.000000" stroke="none" 
	d="
M27.028843,27.961666 
	C26.925135,24.892067 26.821424,21.822466 26.859987,18.374554 
	C27.954008,17.976618 28.905758,17.956997 30.214806,17.924606 
	C29.716547,20.988995 28.860989,24.066151 27.748962,27.591267 
	C27.492493,28.039228 27.028843,27.961666 27.028843,27.961666 
z"/>
<path fill="#54716C" opacity="1.000000" stroke="none" 
	d="
M73.723167,8.605439 
	C72.673943,9.215417 71.272003,9.982362 69.955353,9.856576 
	C66.544212,9.530696 63.914898,10.178213 62.380688,13.531031 
	C61.995831,12.178184 62.045898,11.114159 62.095963,10.050135 
	C65.867081,9.485315 69.638191,8.920497 73.723167,8.605439 
z"/>
<path fill="#D9E7E6" opacity="1.000000" stroke="none" 
	d="
M38.556427,39.116699 
	C39.281219,38.972866 39.690784,39.023010 40.409573,39.082153 
	C40.922752,39.758793 41.126709,40.426430 41.345695,41.443089 
	C39.437992,42.849056 37.604038,44.418438 35.559563,44.772629 
	C34.313656,44.988476 32.743420,43.332226 31.557785,42.290962 
	C35.219097,44.128265 37.376205,43.231064 38.556427,39.116699 
z"/>
<path fill="#446B67" opacity="1.000000" stroke="none" 
	d="
M51.188183,81.338669 
	C54.808853,80.962662 58.499207,80.984077 62.656185,81.032143 
	C59.339760,84.296532 55.335793,83.664124 51.188183,81.338669 
z"/>
<path fill="#D9E7E6" opacity="1.000000" stroke="none" 
	d="
M58.114223,43.277161 
	C61.442795,42.926998 64.792511,42.985054 68.591415,43.146873 
	C65.520500,46.279613 61.849152,45.514683 58.114223,43.277161 
z"/>
<path fill="#D9E7E6" opacity="1.000000" stroke="none" 
	d="
M29.417271,37.040092 
	C29.912689,35.025490 30.728348,33.026596 31.544006,31.027700 
	C31.961004,31.181406 32.378002,31.335114 32.795002,31.488819 
	C32.795002,33.543076 32.795002,35.597332 32.445625,37.837185 
	C31.310003,37.700459 30.523756,37.378132 29.417271,37.040092 
z"/>
<path fill="#D9E7E6" opacity="1.000000" stroke="none" 
	d="
M58.975990,8.426922 
	C55.613235,8.746944 52.176933,8.715561 48.340263,8.672861 
	C51.401348,4.860877 55.099476,5.487670 58.975990,8.426922 
z"/>
<path fill="#A9C5BF" opacity="1.000000" stroke="none" 
	d="
M42.922897,8.669847 
	C40.588619,8.999570 38.234581,8.942523 35.161583,8.865657 
	C34.253468,8.789788 34.064316,8.733741 33.875168,8.677692 
	C36.884491,8.546155 39.893810,8.414617 42.922897,8.669847 
z"/>
<path fill="#64807C" opacity="1.000000" stroke="none" 
	d="
M69.370605,67.755432 
	C68.063110,66.671143 66.922913,65.309830 65.326126,63.403374 
	C66.842995,62.464642 68.004929,61.745560 69.520218,60.990829 
	C69.761681,63.129589 69.649796,65.304001 69.370605,67.755432 
z"/>
<path fill="#D9E7E6" opacity="1.000000" stroke="none" 
	d="
M61.786911,9.919137 
	C62.045898,11.114159 61.995831,12.178184 62.023293,13.634340 
	C62.084518,14.768343 62.068214,15.510214 61.714813,16.613029 
	C60.987595,16.967840 60.597469,16.961706 60.207344,16.955572 
	C60.049236,14.647634 59.891129,12.339696 59.668839,9.603598 
	C60.229061,9.379671 60.853458,9.583906 61.786911,9.919137 
z"/>
<path fill="#D0DAD9" opacity="1.000000" stroke="none" 
	d="
M11.338367,37.031029 
	C11.675349,38.689358 11.677789,40.456131 11.704443,42.668884 
	C11.487047,41.123066 11.245437,39.131271 11.338367,37.031029 
z"/>
<path fill="#56706E" opacity="1.000000" stroke="none" 
	d="
M25.600468,47.037357 
	C26.149254,47.347065 26.305151,47.696926 26.493399,48.330528 
	C24.729267,48.755901 22.932785,48.897533 20.697414,49.056549 
	C21.908213,48.408455 23.557894,47.742981 25.600468,47.037357 
z"/>
<path fill="#D9E7E6" opacity="1.000000" stroke="none" 
	d="
M58.047359,39.011826 
	C58.112968,40.053188 58.178577,41.094555 58.186020,42.523159 
	C57.212849,42.775009 56.297848,42.639614 55.176464,42.218597 
	C55.452347,41.069065 55.934612,40.205151 56.932549,39.165504 
	C57.647930,38.997120 57.847645,39.004475 58.047359,39.011826 
z"/>
<path fill="#D0DAD9" opacity="1.000000" stroke="none" 
	d="
M13.013239,43.702038 
	C13.991522,43.228325 15.067841,43.068638 16.556643,42.924831 
	C15.683176,43.299160 14.397225,43.657612 13.013239,43.702038 
z"/>
<path fill="#D9E7E6" opacity="1.000000" stroke="none" 
	d="
M43.011265,43.457188 
	C43.824398,43.283382 44.677017,43.425339 45.759007,43.801414 
	C45.009167,43.948009 44.029961,43.860477 43.011265,43.457188 
z"/>
<path fill="#D2E2DF" opacity="1.000000" stroke="none" 
	d="
M14.233605,18.998669 
	C14.490558,19.782726 14.459979,20.644907 14.205074,21.752119 
	C13.969192,21.023697 13.957632,20.050243 14.233605,18.998669 
z"/>
<path fill="#D0DAD9" opacity="1.000000" stroke="none" 
	d="
M12.231630,31.980261 
	C12.470022,32.763580 12.425143,33.629814 12.155872,34.741394 
	C11.937107,34.012218 11.942734,33.037693 12.231630,31.980261 
z"/>
<path fill="#4F706B" opacity="1.000000" stroke="none" 
	d="
M35.061104,81.324234 
	C35.941566,81.264328 36.898224,81.517609 37.971779,82.055374 
	C37.104885,82.105721 36.121090,81.871567 35.061104,81.324234 
z"/>
<path fill="#BFD6D3" opacity="1.000000" stroke="none" 
	d="
M30.948988,79.324783 
	C31.961271,79.398529 32.930805,79.815285 34.041485,80.541817 
	C33.403099,80.892654 32.623569,80.933708 31.454819,81.001526 
	C31.012482,80.574783 30.959360,80.121284 30.948988,79.324783 
z"/>
<path fill="#56706E" opacity="1.000000" stroke="none" 
	d="
M15.267789,81.230103 
	C15.853506,81.064011 16.325779,81.221733 16.915472,81.852341 
	C17.021786,82.504921 17.010681,82.684639 16.999577,82.864349 
	C16.384499,82.427544 15.769421,81.990730 15.267789,81.230103 
z"/>
<path fill="#4F706B" opacity="1.000000" stroke="none" 
	d="
M44.212967,82.487656 
	C44.620697,81.985626 45.322945,81.597511 46.343941,81.335518 
	C45.944286,81.841621 45.225883,82.221596 44.212967,82.487656 
z"/>
<path fill="#64807C" opacity="1.000000" stroke="none" 
	d="
M67.567749,78.234146 
	C67.438179,77.641060 67.571175,76.896446 67.963905,75.999741 
	C68.092522,76.592636 67.961411,77.337631 67.567749,78.234146 
z"/>
<path fill="#D9E7E6" opacity="1.000000" stroke="none" 
	d="
M77.491470,25.996830 
	C77.223000,25.469963 77.247498,24.898123 77.489586,24.125866 
	C77.732933,24.600916 77.758690,25.276386 77.491470,25.996830 
z"/>
<path fill="#64807C" opacity="1.000000" stroke="none" 
	d="
M69.012543,72.825211 
	C68.767326,72.385826 68.705238,71.803345 68.877106,71.100403 
	C69.139259,71.547325 69.167473,72.114731 69.012543,72.825211 
z"/>
<path fill="#D2E2DF" opacity="1.000000" stroke="none" 
	d="
M31.387772,13.973893 
	C31.566900,14.499640 31.483303,15.069839 31.151108,15.810450 
	C30.976686,15.326690 31.050865,14.672517 31.387772,13.973893 
z"/>
<path fill="#D9E7E6" opacity="1.000000" stroke="none" 
	d="
M51.097813,44.103333 
	C51.464413,43.574703 51.967529,43.300961 52.764977,43.088219 
	C52.450977,43.552219 51.842651,43.955215 51.097813,44.103333 
z"/>
<path fill="#64807C" opacity="1.000000" stroke="none" 
	d="
M70.831467,59.367352 
	C70.645287,58.777287 70.687531,57.982758 71.003456,57.019115 
	C71.204720,57.620964 71.132301,58.391926 70.831467,59.367352 
z"/>
<path fill="#4B6A63" opacity="1.000000" stroke="none" 
	d="
M33.736542,8.924610 
	C34.064316,8.733741 34.253468,8.789788 34.724255,8.936813 
	C34.695755,9.271890 34.385628,9.515991 33.772057,9.741499 
	C33.511719,9.539111 33.554817,9.355319 33.736542,8.924610 
z"/>
<path fill="#D9E7E6" opacity="1.000000" stroke="none" 
	d="
M55.921486,47.474869 
	C55.865353,47.619400 55.682827,47.678886 55.226551,47.648857 
	C55.204224,47.341602 55.484985,47.285095 55.921486,47.474869 
z"/>
<path fill="#53726D" opacity="1.000000" stroke="none" 
	d="
M17.268543,82.889664 
	C17.010681,82.684639 17.021786,82.504921 17.071371,82.055260 
	C17.109850,81.785309 17.573345,81.887146 17.801601,81.951950 
	C17.865742,82.316170 17.701626,82.615578 17.268543,82.889664 
z"/>
<path fill="#55736C" opacity="1.000000" stroke="none" 
	d="
M26.879116,28.250158 
	C27.028843,27.961666 27.492493,28.039228 27.718800,27.975788 
	C27.566317,28.805758 27.187527,29.699165 26.808735,30.592573 
	C26.782286,29.907932 26.755838,29.223291 26.879116,28.250158 
z"/>
<path fill="#D9E7E6" opacity="1.000000" stroke="none" 
	d="
M41.107994,75.974136 
	C41.923306,70.220589 42.738617,64.467041 44.069489,58.329750 
	C45.082466,57.956715 45.579880,57.967426 46.077293,57.978138 
	C45.216854,63.778934 44.356415,69.579735 42.970577,75.702606 
	C41.999451,76.007828 41.553722,75.990982 41.107994,75.974136 
z"/>
<path fill="#BCDBD6" opacity="1.000000" stroke="none" 
	d="
M36.054428,52.379990 
	C36.168507,51.977871 36.633629,51.993744 36.864822,52.020123 
	C36.654037,55.864277 36.212059,59.682049 35.414192,63.673656 
	C35.352318,60.159031 35.646336,56.470570 36.054428,52.379990 
z"/>
<path fill="#BBD1D0" opacity="1.000000" stroke="none" 
	d="
M41.046486,76.281631 
	C41.553722,75.990982 41.999451,76.007828 42.779465,76.040451 
	C42.404160,76.233856 41.694565,76.411484 41.046486,76.281631 
z"/>
<path fill="#BBD1D0" opacity="1.000000" stroke="none" 
	d="
M46.216896,57.698341 
	C45.579880,57.967426 45.082466,57.956715 44.211746,57.948868 
	C43.843224,57.433407 43.848000,56.915081 43.995251,56.176300 
	C44.506973,55.989025 44.876228,56.022198 45.798111,56.119087 
	C46.352657,56.594719 46.354576,57.006634 46.216896,57.698341 
z"/>
<path fill="#4C6B67" opacity="1.000000" stroke="none" 
	d="
M38.308891,48.909157 
	C38.246239,48.709522 38.364399,48.406502 38.748280,48.136307 
	C38.898411,48.430080 38.723644,48.642292 38.308891,48.909157 
z"/>
<path fill="#AECBCB" opacity="1.000000" stroke="none" 
	d="
M59.526810,70.601974 
	C60.036427,68.759102 60.460571,67.326965 61.084255,65.221100 
	C63.676376,69.661430 63.006382,74.229095 59.441345,77.407974 
	C59.441345,74.952507 59.441345,72.982605 59.526810,70.601974 
z"/>
<path fill="#BFDAD4" opacity="1.000000" stroke="none" 
	d="
M47.124161,34.073578 
	C48.620789,27.075233 50.092651,20.485085 51.564514,13.894937 
	C52.150932,13.977459 52.737347,14.059981 53.323765,14.142504 
	C52.217918,22.357203 51.112072,30.571901 50.006226,38.786602 
	C49.415741,38.840996 48.825256,38.895386 48.234776,38.949780 
	C47.856316,37.460442 47.477852,35.971107 47.124161,34.073578 
z"/>
<path fill="#BAD5CF" opacity="1.000000" stroke="none" 
	d="
M58.395790,38.787495 
	C57.847645,39.004475 57.647930,38.997120 57.149940,38.959099 
	C57.906872,31.875698 58.962078,24.822962 60.112312,17.362900 
	C60.597469,16.961706 60.987595,16.967840 61.670212,16.982983 
	C60.889877,24.182384 59.817047,31.372774 58.395790,38.787495 
z"/>
<path fill="#B3D0CD" opacity="1.000000" stroke="none" 
	d="
M70.234283,25.366489 
	C69.218864,29.990122 70.492714,35.019241 64.971870,37.558990 
	C66.532562,29.422268 68.093246,21.285545 69.653931,13.148822 
	C70.383041,13.244134 71.112152,13.339447 71.841263,13.434759 
	C71.344276,17.271002 70.847298,21.107246 70.234283,25.366489 
z"/>
<path fill="#516F6F" opacity="1.000000" stroke="none" 
	d="
M25.389839,57.373833 
	C26.253338,57.126083 26.881948,57.122440 27.982294,57.139404 
	C27.913494,58.388527 27.372957,59.617050 26.832420,60.845570 
	C26.273264,59.769695 25.714108,58.693817 25.389839,57.373833 
z"/>
<path fill="#516F6F" opacity="1.000000" stroke="none" 
	d="
M28.695400,54.950066 
	C28.677582,53.170555 29.000736,51.256905 29.644201,49.142853 
	C29.655130,50.900280 29.345751,52.858097 28.695400,54.950066 
z"/>
<path fill="#2F5550" opacity="1.000000" stroke="none" 
	d="
M31.968201,74.331207 
	C32.076569,74.359772 32.192623,74.583511 32.142776,74.862137 
	C31.976879,74.917030 31.975887,74.526382 31.968201,74.331207 
z"/>
</svg>